<?xml version="1.0" standalone="no"?>
<!DOCTYPE svg PUBLIC "-//W3C//DTD SVG 20010904//EN"
 "http://www.w3.org/TR/2001/REC-SVG-20010904/DTD/svg10.dtd">
<svg version="1.0" xmlns="http://www.w3.org/2000/svg"
 width="1280.000000pt" height="378.000000pt" viewBox="0 0 1280.000000 378.000000"
 preserveAspectRatio="xMidYMid meet">
<metadata>
Created by potrace 1.16, written by Peter Selinger 2001-2019
</metadata>
<g transform="translate(0.000000,378.000000) scale(0.100000,-0.100000)"
fill="#000000" stroke="none">
<path d="M6932 3767 c-6 -7 -16 -76 -22 -153 -15 -198 -38 -349 -75 -499 -56
-224 -89 -288 -228 -447 -131 -148 -45 -123 -844 -248 -826 -129 -1679 -265
-2213 -354 l-384 -64 -59 29 c-77 39 -262 101 -290 97 -20 -3 -22 -8 -19 -63
1 -33 0 -69 -3 -80 -15 -67 -287 -130 -610 -141 l-160 -5 -85 133 c-177 277
-292 412 -505 593 -269 228 -548 437 -750 560 -209 127 -504 260 -622 280 -35
5 -44 4 -49 -9 -3 -9 18 -73 50 -146 30 -71 63 -159 72 -196 23 -90 43 -111
129 -132 65 -16 72 -20 118 -77 84 -103 342 -498 400 -612 100 -198 191 -454
217 -615 11 -66 10 -86 -5 -155 -39 -177 -201 -582 -402 -1008 -83 -175 -97
-211 -84 -217 28 -12 144 -8 216 7 122 26 403 177 541 292 47 39 154 164 456
528 96 116 203 239 238 274 l64 64 88 -7 c173 -13 496 -73 526 -98 7 -6 19
-36 28 -67 9 -31 21 -62 26 -69 27 -32 121 -4 251 75 l59 36 111 -33 c282 -82
427 -143 527 -220 30 -23 105 -80 167 -126 161 -121 178 -139 192 -202 6 -29
11 -70 11 -90 0 -20 3 -55 7 -76 l6 -39 126 6 c201 10 338 50 584 173 l149 75
626 -130 c1151 -238 1163 -239 2002 -266 261 -8 495 -18 520 -21 86 -11 83 -8
76 -83 -19 -207 -19 -206 -2 -224 24 -24 77 -21 187 7 138 36 230 75 614 258
l200 96 230 17 c580 42 1036 88 1293 131 381 63 856 188 1020 267 86 42 112
68 112 110 0 40 -25 71 -114 137 -32 24 -53 46 -47 48 6 2 64 -19 128 -47 107
-46 125 -51 193 -51 98 0 237 21 330 51 93 28 370 168 468 234 90 62 98 83 51
132 -132 137 -761 407 -1382 592 -520 156 -1865 436 -2615 546 -160 24 -505
65 -544 65 -9 0 -86 75 -171 168 -155 167 -182 199 -400 475 -239 301 -404
442 -593 507 -66 23 -117 26 -132 7z m2883 -2054 c41 -123 71 -277 85 -440 11
-130 24 -182 72 -278 l30 -60 -26 25 c-62 57 -92 135 -135 349 -29 142 -83
460 -95 551 l-5 45 20 -45 c12 -25 36 -91 54 -147z m-525 -77 c28 -94 67 -225
86 -291 43 -147 81 -225 142 -295 l47 -54 -60 32 c-112 60 -112 60 -156 227
-36 138 -119 504 -134 585 l-6 35 16 -34 c8 -18 38 -110 65 -205z m834 129
c32 -154 57 -446 55 -645 -1 -92 -3 -116 -10 -90 -35 144 -95 839 -70 815 6
-6 17 -42 25 -80z m-554 -170 c27 -105 60 -251 73 -326 27 -145 44 -190 101
-258 50 -60 45 -62 -16 -6 -102 94 -119 127 -157 320 -25 125 -71 440 -70 480
l0 30 11 -25 c5 -14 32 -111 58 -215z"/>
</g>
</svg>
