
<svg version="1.1" id="Layer_1" xmlns="http://www.w3.org/2000/svg" xmlns:xlink="http://www.w3.org/1999/xlink" x="0px" y="0px"
width="100%" viewBox="0 0 1357 628" enable-background="new 0 0 1357 628" xml:space="preserve">
<path fill="#0000FF" opacity="1.000000" stroke="none" 
d="
M1156.079346,70.107735 
C1160.570312,70.071831 1165.061279,70.041969 1169.552246,69.999046 
C1204.253052,69.667389 1238.954590,69.385834 1273.654541,68.977943 
C1291.384399,68.769531 1309.112793,68.382271 1326.839600,67.980988 
C1336.916260,67.752869 1346.988525,67.333328 1357.531372,67.000000 
C1358.000000,100.687561 1358.000000,134.375122 1358.000000,168.531342 
C1346.348389,169.000000 1334.694946,169.128113 1323.045654,168.967102 
C1308.971191,168.772552 1294.898804,168.383972 1280.828369,167.979111 
C1273.244263,167.760864 1265.655273,166.907425 1258.087769,167.099258 
C1246.578979,167.390976 1235.002808,167.715576 1223.618530,169.242813 
C1216.554565,170.190491 1209.928711,174.174072 1202.864136,175.398849 
C1190.718872,177.504425 1182.712891,185.844650 1173.685059,192.798447 
C1161.094727,202.496246 1147.742065,210.915878 1133.013306,217.051132 
C1126.919312,219.589523 1121.109863,222.975449 1114.837891,224.877014 
C1108.089722,226.922974 1101.001953,228.157822 1093.972900,228.911179 
C1072.170898,231.247818 1059.140503,217.984802 1048.094849,201.966141 
C1044.183350,196.293823 1041.342529,189.883240 1038.393555,183.416046 
C1040.455688,184.540649 1043.802979,186.617340 1043.515259,187.475418 
C1042.541260,190.380753 1043.904785,190.645721 1045.899536,190.998718 
C1050.600098,191.830582 1053.168457,195.048370 1054.967407,199.120056 
C1056.096680,201.676163 1057.217285,204.236176 1058.361694,206.839996 
C1061.523804,205.233902 1064.266357,203.840897 1066.924683,202.490723 
C1065.764160,192.035889 1055.122437,190.310745 1049.732788,183.992783 
C1050.351685,183.260498 1050.526001,182.950775 1050.787354,182.761093 
C1053.371460,180.885681 1058.171997,180.376175 1054.369629,175.007751 
C1053.613647,173.940384 1056.218750,170.109390 1057.830444,167.972549 
C1058.339355,167.297852 1060.683838,168.183212 1062.146973,168.008636 
C1064.020630,167.785080 1066.948853,167.781357 1067.515015,166.691711 
C1070.127197,161.664566 1071.988647,156.563889 1072.620972,150.520599 
C1073.536011,141.775528 1070.302979,135.701614 1064.953003,129.963943 
C1061.670898,126.444107 1058.079468,123.206123 1054.522949,119.955376 
C1053.887451,119.374420 1052.420166,118.821175 1051.882568,119.149193 
C1045.299194,123.166588 1040.614990,118.323608 1035.838623,116.273369 
C1036.975342,112.650948 1038.126221,109.382858 1039.021240,106.046120 
C1040.747192,99.610695 1046.207397,96.126602 1052.731812,96.961746 
C1056.021118,97.382797 1059.415283,96.935730 1062.760742,96.980698 
C1065.411011,97.016312 1068.074219,97.069641 1070.704712,97.358826 
C1073.681519,97.686066 1076.628174,98.285347 1080.226196,98.870033 
C1077.410034,88.975784 1080.163818,85.918777 1088.396729,88.071701 
C1090.061523,88.507050 1091.455200,90.107025 1093.111206,90.403877 
C1094.255493,90.609024 1095.636108,89.496590 1096.911133,88.972961 
C1095.379639,86.632736 1096.360229,84.869942 1098.739868,84.907692 
C1100.166260,84.930321 1101.925415,86.549561 1102.909058,87.905380 
C1106.701050,93.132576 1101.768188,97.580925 1100.853516,102.262100 
C1100.146118,105.881691 1099.642578,108.662857 1102.112183,111.348862 
C1105.418335,114.944534 1108.893921,118.386772 1112.349487,121.842041 
C1114.874268,124.366661 1117.714355,126.613281 1119.995972,129.334244 
C1122.636230,132.482941 1123.127930,132.707642 1126.824585,129.908264 
C1125.353149,125.886528 1123.152954,121.950760 1126.363281,117.751518 
C1126.530518,117.532791 1126.374756,116.930519 1126.194336,116.603119 
C1123.414673,111.557327 1122.273804,105.313713 1115.050659,103.816277 
C1111.642944,103.109825 1109.476074,97.145958 1111.625000,96.053085 
C1115.479492,94.092903 1119.533691,92.315887 1123.708374,91.300095 
C1125.338379,90.903488 1127.518677,92.768532 1129.448364,93.603470 
C1129.850342,94.071190 1130.252319,94.538910 1130.654419,95.006630 
C1132.714722,92.211945 1134.257690,88.625595 1136.981079,86.845703 
C1139.692871,85.073479 1143.589844,85.114685 1148.358521,84.050217 
C1140.710083,80.972717 1134.375122,78.423782 1128.040283,75.874847 
C1128.111816,75.489731 1128.183228,75.104614 1128.254761,74.719498 
C1130.689331,74.719498 1133.123901,74.719498 1135.735718,74.719498 
C1134.786255,73.348068 1134.020142,72.241341 1132.916748,70.647423 
C1142.949097,69.568558 1150.997559,77.317970 1160.652222,75.188667 
C1158.858276,73.195442 1157.468872,71.651581 1156.079346,70.107735 
M1091.274902,158.862976 
C1090.908081,158.758347 1090.541382,158.653702 1090.174561,158.549072 
C1090.422363,159.056885 1090.670044,159.564713 1091.002197,160.795624 
C1091.481689,162.544403 1092.937744,165.156967 1092.280273,165.900238 
C1088.339355,170.356049 1092.293579,172.142273 1094.736084,175.132431 
C1094.458008,169.108917 1094.619507,169.058945 1103.237183,171.888855 
C1102.537964,171.192413 1101.838867,170.495972 1101.139648,169.799530 
C1102.747192,168.439392 1104.354736,167.079269 1105.340942,166.244781 
C1102.396362,164.750366 1097.020508,162.022003 1091.274902,158.862976 
M1085.677246,201.924088 
C1084.232300,202.004211 1082.543457,201.636490 1081.395630,202.261871 
C1079.293457,203.407074 1077.510864,205.138840 1074.836182,207.215073 
C1077.143311,207.215073 1078.855225,207.419235 1080.501343,207.177231 
C1085.651245,206.420135 1091.296143,203.317612 1094.333374,211.230286 
C1095.242065,208.726822 1095.921021,206.856216 1096.596313,204.995743 
C1098.195923,204.995743 1099.531372,205.102371 1100.844971,204.977859 
C1107.667725,204.331299 1109.686890,200.965942 1107.282349,194.568771 
C1106.662598,192.919846 1106.437256,191.123154 1106.023804,189.395981 
C1105.391968,186.756012 1105.419556,183.623291 1103.930664,181.618011 
C1102.457886,179.634705 1099.451172,178.790359 1097.117310,177.446381 
C1097.548218,179.587662 1097.437012,182.069321 1098.523315,183.799088 
C1100.759644,187.360428 1101.472900,191.034653 1098.420898,193.815033 
C1094.884155,197.036942 1090.474243,199.300491 1085.677246,201.924088 
M1084.486694,145.990631 
C1083.875488,144.631943 1083.264282,143.273254 1082.653076,141.914581 
C1083.725098,141.667099 1084.797241,141.419632 1087.086060,140.891266 
C1082.485474,137.467926 1078.494019,134.497849 1074.502563,131.527756 
C1077.520752,138.397980 1080.744873,144.690247 1084.453857,150.682297 
C1085.545776,152.446243 1088.010620,153.360443 1089.846191,154.664078 
C1090.272217,154.171143 1090.698120,153.678207 1091.124146,153.185257 
C1089.081543,150.954437 1087.038940,148.723618 1084.486694,145.990631 
M1077.114624,217.557053 
C1077.711670,218.726089 1078.308594,219.895142 1079.039062,221.325302 
C1082.212402,215.581726 1081.252686,213.460831 1074.496948,210.239487 
C1073.559937,212.857162 1073.559937,212.857162 1077.114624,217.557053 
M1065.309326,123.365089 
C1067.188965,125.816917 1069.068604,128.268753 1070.948242,130.720581 
C1071.193115,126.623924 1069.859863,123.801239 1065.309326,123.365089 
z"/>
<path fill="#0000FF" opacity="1.000000" stroke="none" 
d="
M95.933006,216.953888 
C94.262840,217.495544 92.491226,217.834747 90.939270,218.612350 
C82.101677,223.040359 72.546852,222.695541 63.296097,221.730118 
C57.565178,221.132004 52.236897,217.387436 46.501755,215.970535 
C34.453735,212.993988 22.265797,210.577042 10.113590,208.034088 
C7.414295,207.469223 4.625222,207.333374 1.438743,207.000000 
C1.000000,158.979111 1.000000,110.958214 1.000000,62.468658 
C12.574972,64.768929 24.153093,67.524834 35.721119,70.322487 
C37.246586,70.691414 38.720505,71.273514 40.487144,72.254929 
C42.981804,75.609634 47.187904,76.454262 50.932507,75.072571 
C52.318184,74.561279 53.927540,74.656204 55.434879,74.474655 
C55.631107,75.315987 55.827335,76.157318 56.023560,76.998642 
C51.269840,78.664268 46.564312,80.488724 41.748577,81.949959 
C37.118183,83.354965 32.373722,84.384041 27.018097,85.746529 
C31.457895,93.327423 25.515574,94.760361 22.072439,97.497963 
C22.248266,97.945976 22.424091,98.393990 22.599918,98.842003 
C26.343126,98.842003 30.086334,98.842003 33.829540,98.842003 
C33.978783,99.397270 34.128025,99.952545 34.277267,100.507812 
C26.056812,104.277092 17.836359,108.046371 9.615906,111.815651 
C13.720107,111.489296 17.612860,110.490761 21.291857,108.973816 
C31.890692,104.603661 42.390026,99.992775 52.960590,95.552979 
C55.138058,94.638420 58.072205,92.814407 59.584522,93.566704 
C63.227634,95.378952 66.440376,94.460182 69.175545,92.894440 
C75.011261,89.553787 80.549454,90.538254 86.282463,92.645447 
C86.885330,92.867020 87.564552,93.005569 88.202751,92.987259 
C95.924011,92.765617 100.761520,99.281082 107.536293,101.309708 
C108.383263,101.563316 109.218422,102.987846 109.437653,104.003914 
C110.243149,107.737114 110.800217,111.524727 111.387825,115.301659 
C111.416527,115.486214 110.859535,115.777733 110.557930,115.995415 
C107.038300,118.535690 106.024261,121.571655 108.084572,125.368195 
C107.571632,127.274300 106.804604,129.748337 107.715218,130.935135 
C110.464905,134.518829 113.866226,137.602570 117.125572,140.997925 
C114.831177,144.329300 112.852631,147.202072 110.028801,151.302170 
C109.558517,148.561584 109.346176,147.324173 108.876190,144.585327 
C107.067604,146.381409 105.659660,147.429901 104.700737,148.794037 
C101.059563,153.973785 97.532585,159.234955 94.022377,164.505310 
C90.712593,169.474716 87.464920,174.485825 84.242203,179.512100 
C84.054039,179.805557 84.388466,180.399399 84.388008,180.853348 
C84.384323,184.514511 82.562271,187.887527 85.304413,191.903870 
C87.079529,194.503815 85.453453,199.217331 86.218979,202.798325 
C86.635788,204.748077 88.534348,206.877274 90.343834,207.928574 
C93.977921,210.039932 95.750412,212.902847 95.933006,216.953888 
M103.363190,134.939301 
C102.949310,135.162735 102.162682,135.412903 102.176498,135.605682 
C102.463783,139.613892 107.419693,143.081253 112.096909,142.401688 
C110.329193,138.701294 109.235466,134.546371 103.363190,134.939301 
z"/>
<path fill="#C0C0C0" opacity="1.000000" stroke="none" 
d="
M1155.749756,69.956604 
C1157.468872,71.651581 1158.858276,73.195442 1160.652222,75.188667 
C1150.997559,77.317970 1142.949097,69.568558 1132.916748,70.647423 
C1134.020142,72.241341 1134.786255,73.348068 1135.735718,74.719498 
C1133.123901,74.719498 1130.689331,74.719498 1128.254761,74.719498 
C1128.183228,75.104614 1128.111816,75.489731 1128.040283,75.874847 
C1134.375122,78.423782 1140.710083,80.972717 1148.358521,84.050217 
C1143.589844,85.114685 1139.692871,85.073479 1136.981079,86.845703 
C1134.257690,88.625595 1132.714722,92.211945 1130.654419,95.006630 
C1130.252319,94.538910 1129.850342,94.071190 1129.448364,93.603470 
C1127.518677,92.768532 1125.338379,90.903488 1123.708374,91.300095 
C1119.533691,92.315887 1115.479492,94.092903 1111.625000,96.053085 
C1109.476074,97.145958 1111.642944,103.109825 1115.050659,103.816277 
C1122.273804,105.313713 1123.414673,111.557327 1126.194336,116.603119 
C1126.374756,116.930519 1126.530518,117.532791 1126.363281,117.751518 
C1123.152954,121.950760 1125.353149,125.886528 1126.824585,129.908264 
C1123.127930,132.707642 1122.636230,132.482941 1119.995972,129.334244 
C1117.714355,126.613281 1114.874268,124.366661 1112.349487,121.842041 
C1108.893921,118.386772 1105.418335,114.944534 1102.112183,111.348862 
C1099.642578,108.662857 1100.146118,105.881691 1100.853516,102.262100 
C1101.768188,97.580925 1106.701050,93.132576 1102.909058,87.905380 
C1101.925415,86.549561 1100.166260,84.930321 1098.739868,84.907692 
C1096.360229,84.869942 1095.379639,86.632736 1096.911133,88.972961 
C1095.636108,89.496590 1094.255493,90.609024 1093.111206,90.403877 
C1091.455200,90.107025 1090.061523,88.507050 1088.396729,88.071701 
C1080.163818,85.918777 1077.410034,88.975784 1080.226196,98.870033 
C1076.628174,98.285347 1073.681519,97.686066 1070.704712,97.358826 
C1068.074219,97.069641 1065.411011,97.016312 1062.760742,96.980698 
C1059.415283,96.935730 1056.021118,97.382797 1052.731812,96.961746 
C1046.207397,96.126602 1040.747192,99.610695 1039.021240,106.046120 
C1038.126221,109.382858 1036.975342,112.650948 1035.838623,116.273369 
C1040.614990,118.323608 1045.299194,123.166588 1051.882568,119.149193 
C1052.420166,118.821175 1053.887451,119.374420 1054.522949,119.955376 
C1058.079468,123.206123 1061.670898,126.444107 1064.953003,129.963943 
C1070.302979,135.701614 1073.536011,141.775528 1072.620972,150.520599 
C1071.988647,156.563889 1070.127197,161.664566 1067.515015,166.691711 
C1066.948853,167.781357 1064.020630,167.785080 1062.146973,168.008636 
C1060.683838,168.183212 1058.339355,167.297852 1057.830444,167.972549 
C1056.218750,170.109390 1053.613647,173.940384 1054.369629,175.007751 
C1058.171997,180.376175 1053.371460,180.885681 1050.787354,182.761093 
C1050.526001,182.950775 1050.351685,183.260498 1049.732788,183.992783 
C1055.122437,190.310745 1065.764160,192.035889 1066.924683,202.490723 
C1064.266357,203.840897 1061.523804,205.233902 1058.361694,206.839996 
C1057.217285,204.236176 1056.096680,201.676163 1054.967407,199.120056 
C1053.168457,195.048370 1050.600098,191.830582 1045.899536,190.998718 
C1043.904785,190.645721 1042.541260,190.380753 1043.515259,187.475418 
C1043.802979,186.617340 1040.455688,184.540649 1038.409302,183.046448 
C1035.489502,183.714539 1032.934814,184.358627 1029.738647,185.164398 
C1029.319946,184.153900 1028.551147,182.591660 1028.017456,180.952896 
C1026.765015,177.106949 1024.729004,176.397308 1022.194641,179.435730 
C1019.881958,182.208450 1018.158630,185.472717 1016.175537,188.520370 
C1015.329285,188.188873 1014.482971,187.857376 1013.636719,187.525894 
C1017.204590,189.948593 1020.772461,192.371307 1024.505859,194.906387 
C1028.168335,190.059250 1031.745239,193.250519 1035.309082,194.089340 
C1032.652588,196.942795 1030.074097,199.353165 1027.949951,202.113312 
C1026.394043,204.135162 1026.854858,205.959778 1029.459839,207.319916 
C1030.923950,208.084366 1031.905762,209.808334 1033.045776,211.150101 
C1035.349487,213.861160 1037.261353,217.048660 1039.988647,219.217194 
C1042.901489,221.533081 1043.615479,223.191528 1039.589722,225.919891 
C1047.835327,226.844788 1045.757690,231.328415 1044.187378,235.853256 
C1042.104980,241.854263 1041.406372,248.104065 1037.281860,253.649490 
C1032.831055,259.633575 1026.422974,261.233490 1020.561218,262.090454 
C1014.685547,262.949463 1010.824646,265.148041 1008.225647,268.488098 
C1005.367188,267.023804 1002.687500,264.445068 1000.256897,264.661621 
C995.469421,265.088135 990.704468,268.102905 990.766357,273.191650 
C990.808899,276.687103 993.428284,281.160431 996.299316,283.386444 
C1001.156738,287.152710 1004.302246,291.729279 1006.504150,297.137146 
C1007.670593,300.001984 1008.675110,303.115265 1008.804749,306.156769 
C1008.893982,308.249237 1007.939331,311.060791 1006.431396,312.416656 
C1002.371155,316.067505 997.764282,319.110413 992.709106,322.892334 
C992.534241,319.924561 992.378662,317.285156 992.199524,314.245300 
C990.333252,314.930176 989.127136,315.372803 988.733032,315.517426 
C983.560974,310.976959 978.850464,306.704193 973.951233,302.660004 
C973.003357,301.877533 971.318176,301.988159 969.973145,301.686798 
C969.789978,303.070801 969.479675,304.452850 969.458496,305.839325 
C969.436157,307.300934 970.188965,308.948029 969.734497,310.198456 
C967.997559,314.978088 968.325378,318.719666 971.204346,323.528564 
C973.620483,327.564392 975.820374,331.513855 979.636292,333.952576 
C984.583923,337.114624 986.408752,341.838074 987.873840,346.962219 
C988.669617,349.745605 989.308716,352.573761 990.065796,355.568726 
C983.406250,354.793793 976.772888,348.351288 975.161682,340.516266 
C973.835754,334.068939 971.868286,328.459778 965.618225,325.204620 
C964.836548,324.797546 964.055054,323.357178 964.145630,322.486298 
C964.543396,318.662109 965.362366,314.883270 965.819275,311.062958 
C966.033142,309.274933 966.223022,307.269531 965.643311,305.640381 
C963.716492,300.226166 961.394531,294.953949 959.304321,289.596039 
C957.803894,285.750122 956.503784,285.491669 953.326233,288.063934 
C952.010254,289.129303 950.142090,289.512604 948.525024,290.206055 
C947.956421,288.563721 947.554810,286.838379 946.787659,285.294708 
C944.559814,280.811127 942.979004,275.610504 939.606445,272.221802 
C937.103516,269.707001 934.074402,267.868042 932.657471,264.338287 
C931.366455,261.122223 929.482666,259.687347 925.706177,261.492310 
C923.103210,262.736359 919.939697,262.767334 917.067139,263.499115 
C914.396362,264.179504 911.900024,265.104095 912.789368,268.815948 
C912.935059,269.424164 912.483398,270.428253 911.979919,270.897614 
C909.040466,273.637482 905.995422,276.263733 903.000977,278.944977 
C898.286316,283.166565 893.536438,287.351105 888.917358,291.675049 
C888.047607,292.489197 886.921448,294.333588 887.263611,294.936676 
C890.723022,301.034454 887.143799,306.993805 886.622253,312.826965 
C886.268738,316.780579 882.623047,320.543762 879.968689,324.025391 
C879.706238,324.369690 874.953979,322.669464 874.199097,321.034637 
C869.565002,310.998291 865.593689,300.658813 861.177368,290.517975 
C858.029907,283.290771 853.825500,276.434235 855.841431,267.935333 
C856.170410,266.548370 855.218140,264.687378 854.412659,263.304932 
C854.170227,262.888702 852.422729,263.349304 851.364685,263.408234 
C851.672668,266.421326 850.395691,268.596222 847.319397,267.841675 
C844.724670,267.205261 842.439636,265.306000 839.601624,263.735565 
C841.772095,261.905609 842.938416,260.922272 844.759766,259.386658 
C837.854858,258.378387 833.980530,255.007614 830.528931,250.481262 
C828.630676,247.991852 825.693909,246.159103 821.785522,247.938522 
C819.863770,248.813416 817.346924,248.508865 815.099487,248.507355 
C812.462280,248.505585 809.774902,247.857712 807.197632,248.185089 
C800.088196,249.088165 793.447021,249.082092 788.808777,242.337112 
C787.286316,240.123230 785.433594,239.885223 782.761658,240.847672 
C776.551819,243.084488 767.089783,238.700745 763.863647,232.845581 
C762.566040,230.490585 760.793213,228.220947 758.726135,226.540558 
C757.684021,225.693390 754.455688,225.610306 754.038330,226.294083 
C752.946716,228.082443 751.872864,230.883408 752.555481,232.564514 
C754.573914,237.534805 757.397400,242.184875 759.995605,246.910934 
C762.322327,251.143250 764.109680,247.997772 766.197021,245.984634 
C768.168945,249.980591 769.651733,255.470551 775.315796,253.096680 
C779.190308,251.472794 782.256714,247.920807 785.824951,245.120483 
C785.892822,245.460571 785.892944,246.512146 786.312744,247.354630 
C787.327209,249.390839 788.138123,251.784195 789.757446,253.206757 
C792.583069,255.689117 796.161621,257.315033 798.983398,259.800720 
C799.943542,260.646606 800.361084,263.498688 799.677002,264.580597 
C796.691406,269.301788 793.607300,274.088898 789.774841,278.103516 
C786.984802,281.026184 783.008423,282.842377 779.484558,285.028625 
C777.396912,286.323792 775.052612,287.217346 773.014221,288.577118 
C768.991821,291.260437 765.283142,294.458130 761.106995,296.854706 
C756.812073,299.319489 752.146240,301.155670 747.585754,303.135834 
C740.755371,306.101501 735.710327,304.151428 735.397461,296.930786 
C735.046387,288.830170 731.371826,282.442444 726.695801,277.151215 
C721.682373,271.478210 718.989868,265.334106 716.377869,258.513153 
C714.512085,253.640671 709.784668,249.933273 706.802490,245.398041 
C704.223816,241.476364 702.298462,237.124298 700.100159,232.954102 
C699.663513,232.125717 699.299011,231.259308 698.252380,229.025803 
C697.472046,231.937317 697.044739,233.531357 696.426758,235.837189 
C694.060242,233.147766 691.889893,230.681290 688.801697,227.171722 
C688.801697,229.408142 688.455444,230.532120 688.853455,231.234192 
C695.120850,242.290039 702.719604,252.799362 707.375061,264.484955 
C710.301208,271.829926 714.352234,278.320251 717.410583,285.301788 
C719.664917,290.447723 722.879456,293.793304 726.644287,296.908051 
C731.237122,300.707794 735.014282,304.650452 736.443298,310.665344 
C737.245361,314.041138 742.192139,316.477875 745.640686,315.647583 
C752.988892,313.878418 760.315735,312.020416 767.649597,310.199249 
C770.076233,314.139618 768.677429,318.142059 766.400146,322.282257 
C762.243103,329.839508 759.007202,337.990479 754.157471,345.049011 
C750.913086,349.771057 745.047974,352.605713 741.228699,357.037354 
C732.947998,366.645721 721.624084,374.141235 718.697449,387.652893 
C717.103760,395.010834 720.885864,401.300049 722.682190,408.091583 
C724.740601,415.873413 727.917786,424.318512 723.160706,432.434906 
C722.016907,434.386444 720.491882,436.818939 718.593994,437.497894 
C711.672974,439.973907 707.511597,445.356567 702.844604,450.466797 
C699.636536,453.979614 698.331299,456.807953 701.001648,461.340271 
C704.417236,467.137360 702.890747,471.302277 697.132080,474.423096 
C689.258667,478.689941 688.859253,479.552765 690.546387,488.062256 
C685.985718,493.357910 681.314453,498.244629 677.278687,503.609436 
C672.631042,509.787567 666.667236,513.978882 659.759277,517.050232 
C658.933533,517.417358 657.738037,517.746582 657.014160,517.422607 
C651.544922,514.974915 646.323975,516.907898 641.059937,518.115540 
C635.457703,519.400757 631.359863,515.543579 632.036987,509.931061 
C632.261353,508.070801 631.894226,505.812103 630.978577,504.201050 
C627.896790,498.778778 624.130310,493.729706 621.268372,488.205017 
C619.810120,485.390076 619.296448,481.891266 619.095276,478.655579 
C618.455322,468.365112 615.808044,458.782104 610.059692,450.161987 
C604.088745,441.207977 605.946411,432.076477 610.260803,423.468781 
C613.252869,417.499390 615.956238,412.279480 612.483643,405.485016 
C610.999268,402.580566 611.643311,398.665497 610.798279,395.342377 
C608.437988,386.060883 603.716248,378.129547 596.829529,371.388367 
C593.703613,368.328522 595.664307,364.582367 596.440308,361.075073 
C597.078186,358.192017 597.862427,355.267181 597.929321,352.345947 
C598.123047,343.880585 592.729736,339.790985 584.400574,341.751007 
C583.614075,341.936096 582.766235,341.860718 581.989502,341.903900 
C578.276306,332.612030 574.167358,331.028534 564.522156,334.606354 
C559.431641,336.494690 554.164795,337.911346 548.962463,339.491180 
C548.203735,339.721588 547.196106,340.006683 546.582275,339.703125 
C541.111023,336.997589 535.900818,339.035858 530.795227,340.672424 
C525.007874,342.527588 520.182434,341.127960 515.817627,337.311249 
C512.476013,334.389221 509.083344,331.505280 505.972961,328.348602 
C504.647949,327.003845 504.147858,324.885651 502.990387,323.329010 
C499.370941,318.461334 495.606384,313.701782 491.921265,308.882629 
C490.805084,307.422974 489.764374,305.905670 489.798798,304.264099 
C489.478577,302.033600 489.581177,299.623444 488.729401,297.618835 
C487.699707,295.195465 487.113831,293.724884 489.084503,291.077911 
C493.638428,284.961151 493.969055,277.755829 490.807892,270.927612 
C489.218719,267.494873 489.156311,264.465485 490.852814,261.610474 
C495.405945,253.948074 499.845123,246.136200 505.258423,239.098145 
C508.371826,235.050293 513.450195,232.564743 517.311218,229.014023 
C518.708252,227.729263 519.512817,225.471039 519.931824,223.516418 
C521.002563,218.521194 522.738892,214.282211 527.307190,211.209732 
C531.168213,208.612946 534.391296,205.067596 538.283264,201.597351 
C540.172729,202.234100 542.976440,202.977539 545.610962,204.113312 
C549.704468,205.878082 553.031921,204.138870 556.316162,202.130341 
C563.087585,197.989243 570.053528,195.593781 578.320496,196.789642 
C582.913574,197.454056 587.788696,196.152374 592.538452,195.758362 
C594.855164,195.566193 598.538940,194.477112 599.215576,195.451874 
C600.698425,197.588104 601.357788,200.853348 601.083557,203.527313 
C600.616516,208.080383 602.406555,211.756500 606.915894,212.986206 
C609.619324,213.723404 612.367920,214.293900 615.074341,215.020889 
C616.177185,215.317108 617.878784,215.550217 618.191833,216.286545 
C621.435181,223.915497 629.874390,222.028717 635.149292,226.112244 
C637.343628,223.788559 640.252563,222.764664 639.312561,218.396515 
C638.494324,214.594345 643.699524,212.343933 648.315125,214.839462 
C656.329895,219.172836 664.856506,221.340912 673.776245,222.403290 
C673.933655,222.422058 674.080566,222.598572 674.230957,222.596481 
C680.770996,222.505768 687.323120,222.582947 693.839600,222.138519 
C695.031311,222.057220 696.719238,220.010056 697.081116,218.590668 
C698.717102,212.174286 700.396851,205.708267 701.157410,199.155273 
C701.534302,195.907639 697.997925,195.093781 695.668518,196.370499 
C691.068176,198.891907 686.923767,199.925369 682.386841,196.367249 
C681.582520,195.736465 679.729065,195.962173 678.554932,196.363007 
C671.314758,198.834534 666.554626,196.065384 664.916748,188.630157 
C664.465515,186.581940 662.957703,184.766495 661.718445,182.437866 
C662.287354,182.157867 663.604126,180.931396 664.436218,181.200974 
C667.956360,182.341400 670.126831,180.839157 671.983215,178.176834 
C672.254028,177.788498 672.628601,177.239029 673.006958,177.193375 
C682.300903,176.071564 691.237793,169.961288 701.101929,176.264542 
C704.163696,178.221039 708.913208,178.203522 712.805176,177.920990 
C714.847107,177.772751 718.097229,175.242081 718.277893,173.522156 
C718.482117,171.577774 716.290588,168.730377 714.369080,167.349640 
C710.364136,164.471771 705.851074,162.301056 701.665588,159.907730 
C702.720459,155.889771 703.702454,152.149429 704.881897,147.656815 
C699.521545,149.904129 695.002197,151.798843 689.279541,154.198044 
C691.864258,155.756775 693.491638,156.738190 695.119080,157.719589 
C695.214844,158.117661 695.310608,158.515717 695.406372,158.913788 
C692.292419,159.098801 689.163269,159.493774 686.079102,159.269394 
C685.543091,159.230392 685.197388,156.575745 684.611145,154.620026 
C683.525757,153.812088 681.862976,152.574310 680.147827,151.297592 
C669.719543,155.252975 662.824646,170.876816 669.882935,176.688232 
C666.971741,177.317474 664.231628,178.819504 662.157654,178.175705 
C657.279663,176.661484 653.335327,178.803925 649.120850,180.126083 
C646.422852,180.972473 646.035278,182.556320 647.539246,185.019577 
C650.972351,190.642181 650.894348,190.689789 647.371521,197.251160 
C645.481812,194.976074 643.824036,192.980255 642.006775,190.792404 
C643.894409,190.060440 645.186157,189.559540 646.432922,189.076065 
C646.302429,188.462738 646.278931,187.925385 646.171448,187.908035 
C638.983765,186.747513 634.836243,183.282639 634.392090,175.307953 
C634.205566,171.958817 630.885437,169.617142 627.202820,167.931198 
C621.716003,165.419235 616.877686,161.517303 611.639832,158.415436 
C610.400024,157.681198 608.668945,157.776642 607.163818,157.490433 
C607.173340,159.121506 606.486877,161.493942 607.305847,162.262741 
C612.425964,167.069092 617.775757,171.651688 623.280945,176.016327 
C625.406250,177.701324 628.137268,178.622391 630.348938,180.637741 
C628.143677,180.530991 625.938477,180.424240 624.624634,180.360641 
C624.059265,183.944412 623.618835,186.736404 623.178406,189.528381 
C622.584473,189.553925 621.990479,189.579468 621.396545,189.604996 
C621.951904,181.010986 617.022461,178.014618 609.779968,175.579559 
C605.848083,174.257584 602.632202,169.556793 600.067627,165.727585 
C596.721008,160.730698 595.806335,160.324524 590.822083,163.540710 
C587.455994,165.712753 584.034119,167.934433 579.317444,166.348602 
C574.662292,164.783447 571.893616,167.608063 572.485718,172.151627 
C566.652283,176.372849 559.480103,178.911011 558.758301,187.804962 
C558.434937,191.788147 551.197815,195.663086 546.156799,196.088959 
C543.537476,196.310257 540.996155,197.455719 538.208801,198.243301 
C534.789307,196.632401 530.499451,194.611465 524.907837,191.977295 
C525.666687,187.015564 526.590576,180.995834 527.505005,174.974670 
C527.652222,174.005432 527.954285,173.008163 527.849915,172.060715 
C527.208801,166.238586 529.640442,164.115067 535.474487,165.239990 
C539.350098,165.987289 543.272583,166.779709 547.197144,166.924057 
C554.771240,167.202652 558.444275,162.355713 556.813110,154.776337 
C555.986084,150.933701 553.999634,148.168411 550.010620,147.074860 
C548.669312,146.707153 547.421753,145.997726 545.956360,145.369476 
C546.491516,144.499969 546.673096,143.813751 546.995911,143.739243 
C551.519958,142.694962 556.079529,141.801453 560.593201,140.716400 
C562.167542,140.337952 563.887695,139.849472 565.117615,138.875977 
C571.113953,134.129730 576.873474,129.080933 582.931030,124.417534 
C584.612732,123.122902 586.976440,122.337486 589.116760,122.088715 
C594.624451,121.448517 595.719116,120.284683 593.985168,115.242912 
C592.308228,110.367165 593.819336,107.310722 599.125977,105.511574 
C598.784729,107.863388 598.486023,109.921982 598.009583,113.204857 
C601.308350,111.974594 604.085938,110.938675 607.996033,109.480377 
C605.464783,105.165466 603.303406,101.481087 601.096558,97.719261 
C598.274109,99.207771 596.349792,100.635162 594.195801,101.228020 
C592.475403,101.701546 590.361694,101.530731 588.620300,100.998848 
C582.990845,99.279449 583.783203,93.670433 583.687073,89.887413 
C583.632019,87.719093 587.855042,84.449829 590.773743,83.392967 
C598.148865,80.722435 603.979980,76.824791 608.596375,70.231560 
C616.515320,58.921421 628.662170,53.649345 641.738281,52.350704 
C650.549133,51.475662 659.988953,51.904285 668.003723,58.054165 
C670.108643,59.669300 674.276428,58.326157 677.343262,59.020405 
C682.005493,60.075806 686.575623,61.604065 691.093262,63.192223 
C692.474915,63.677944 693.555725,65.019234 694.838013,66.018318 
C686.011780,73.817863 677.110901,63.624920 667.725952,66.968811 
C672.511230,71.136398 676.471924,75.130463 681.019897,78.275108 
C682.806519,79.510399 685.907166,78.845314 688.409363,79.045670 
C688.498596,78.505699 688.587830,77.965729 688.677063,77.425758 
C687.356079,76.435074 686.035095,75.444389 683.590515,73.611076 
C686.466370,74.418152 687.993652,75.079346 689.566772,75.217331 
C690.912659,75.335358 693.436829,75.053963 693.516479,74.606766 
C694.611023,68.459412 700.210571,70.251175 703.759583,68.528549 
C704.047363,68.388885 704.262512,68.099724 704.791443,67.632935 
C704.304688,66.062752 703.792603,64.410851 703.180481,62.436413 
C705.633362,62.162258 707.235779,61.126873 708.874451,64.729179 
C710.683594,68.706497 714.593445,65.955299 717.527954,64.711555 
C720.844788,63.305763 724.081970,61.706367 727.427734,60.377510 
C728.445129,59.973423 730.081482,59.673882 730.799194,60.197296 
C737.021240,64.734993 743.292603,58.392483 749.458862,60.442787 
C749.612610,59.247490 749.766357,58.052197 749.935242,56.457314 
C749.950378,56.057724 750.040894,55.944042 750.040894,55.944038 
C757.827393,57.931892 765.593750,60.006756 773.419495,61.825783 
C774.795959,62.145729 776.421448,61.394363 777.931946,61.137741 
C777.995728,60.622852 778.059570,60.107960 778.123413,59.593067 
C776.235168,58.459255 774.125122,57.572704 772.515198,56.128529 
C770.538879,54.355568 768.677124,52.273609 767.478271,49.956558 
C767.214539,49.446812 769.751892,47.061810 771.341125,46.112766 
C774.168518,44.424419 777.315430,44.498703 779.498352,47.138905 
C783.178528,51.590073 786.968628,56.080452 789.721802,61.097958 
C790.696350,62.873920 788.775391,66.238678 788.056396,69.406487 
C791.247253,70.865822 793.915649,68.613106 795.736938,66.112465 
C798.152771,62.795570 796.878601,59.207050 792.884277,57.022751 
C789.848022,55.362373 787.167847,53.677132 787.190186,48.960297 
C794.376343,51.325420 798.850647,46.801624 803.965515,43.232929 
C806.084839,41.754211 809.503601,42.153168 812.324524,41.658760 
C814.014954,41.362484 815.692078,40.989925 817.778320,40.570614 
C817.075256,38.847061 816.624146,37.741230 815.601196,35.233490 
C823.975342,34.757832 831.635376,34.737076 839.158752,33.712574 
C842.677856,33.233353 845.932800,30.814711 849.307495,29.275066 
C849.059143,28.484987 848.810791,27.694908 848.562439,26.904829 
C845.067139,27.235937 841.571838,27.567045 837.697144,27.934092 
C837.645569,27.668135 837.418823,26.499043 837.244446,25.599791 
C828.053284,24.588234 818.942993,23.585571 809.612061,22.558634 
C812.416321,18.211817 813.827026,17.862156 819.119019,19.116491 
C827.809204,21.176264 836.594727,22.855873 845.230774,25.113503 
C850.086670,26.382925 854.671204,28.658718 859.480713,30.150036 
C861.982666,30.925844 864.746521,31.474285 867.323914,31.268919 
C874.009033,30.736233 880.405518,30.776758 886.352722,35.818260 
C882.689636,38.126740 879.450378,40.168056 876.211182,42.209373 
C876.380066,42.773350 876.548950,43.337322 876.717834,43.901295 
C879.072998,43.466862 881.412598,42.885086 883.787170,42.634186 
C886.967102,42.298183 890.336670,41.511997 893.329834,42.200851 
C897.410278,43.139961 901.238586,44.248318 905.276184,42.398403 
C905.709106,42.200020 906.353943,41.976143 906.702698,42.153347 
C915.155029,46.447685 923.888184,42.470325 932.410461,43.189865 
C936.640137,43.546967 940.915283,45.477684 944.786743,47.448948 
C950.076294,50.142338 954.385986,54.935543 961.406128,50.655788 
C963.604614,49.315498 967.738525,50.998753 970.952271,51.512424 
C975.090027,52.173786 978.453003,49.699596 977.778931,44.898869 
C983.720764,45.462906 989.355652,46.304523 995.010071,46.466621 
C1004.841125,46.748455 1013.212891,53.699303 1023.515564,52.138607 
C1028.628174,51.364120 1034.024048,51.528610 1039.167969,52.207474 
C1042.818237,52.689213 1046.184204,55.029041 1049.820923,56.002769 
C1052.645996,56.759190 1055.841797,57.412640 1058.613159,56.844803 
C1066.587524,55.210922 1074.028442,56.291515 1081.307251,59.622944 
C1081.794556,59.845966 1082.509766,59.570881 1083.718872,59.484707 
C1082.916504,57.879230 1082.331177,56.707912 1081.746948,55.538834 
C1082.041016,55.350471 1082.320801,55.018143 1082.534668,55.056164 
C1094.820679,57.240021 1107.103882,59.439838 1119.379395,61.682423 
C1121.158447,62.007454 1122.903442,62.529037 1124.653809,62.998947 
C1130.016113,64.438614 1135.369019,65.913620 1140.735352,67.338348 
C1142.242554,67.738556 1144.096802,68.724113 1145.251343,68.215080 
C1149.139526,66.500931 1152.277832,67.739746 1155.749756,69.956604 
M609.974121,118.510490 
C612.898621,120.347000 615.595703,121.074165 619.141235,119.242874 
C622.148743,117.689499 625.429077,116.428558 629.455566,118.423897 
C632.910889,120.136162 637.919800,114.521851 637.252197,110.423363 
C636.502319,105.819817 638.461670,104.100471 642.805420,106.013855 
C645.859802,107.359322 646.965820,106.131477 647.862061,103.735825 
C646.485352,102.029213 645.275452,100.529457 644.065613,99.029694 
C644.151855,98.541512 644.238037,98.053337 644.324280,97.565155 
C647.265991,97.565155 650.295776,97.116287 653.128235,97.672615 
C657.161682,98.464836 659.923401,97.002357 662.770813,94.326180 
C661.986633,93.755737 661.590515,93.217964 661.205994,93.226143 
C657.025635,93.315140 652.778381,93.073563 648.685974,93.749313 
C643.884155,94.542206 639.946960,93.028259 637.093872,89.714340 
C634.254028,86.415825 637.240479,83.714729 639.294739,81.045235 
C640.875366,78.991272 642.151611,76.656876 643.242371,74.298775 
C643.596680,73.532715 643.276245,71.875244 642.658813,71.378998 
C641.799561,70.688362 640.117859,70.147728 639.240601,70.544083 
C637.669983,71.253685 636.402710,72.671989 635.069946,73.862747 
C632.506042,76.153564 629.885925,78.394753 627.475098,80.839890 
C625.265503,83.080994 622.177917,85.342186 621.649109,88.022972 
C621.331177,89.634781 625.172180,92.064186 627.136902,94.133034 
C627.354797,94.362473 627.525208,94.637001 627.851501,95.067055 
C627.545410,95.715202 627.391968,96.837898 626.822266,97.120041 
C622.295105,99.362213 620.797852,103.595360 618.910645,107.847588 
C616.958984,112.245087 611.963318,113.433220 608.414612,111.534286 
C606.765015,112.878555 605.400146,114.204712 603.822937,115.191330 
C602.954407,115.734604 601.618164,115.520172 600.729126,116.046471 
C600.448486,116.212555 600.631958,118.083443 601.133667,118.452126 
C602.078003,119.146080 603.438904,119.700447 604.570374,119.609901 
C606.169312,119.481934 607.717224,118.716141 609.974121,118.510490 
M749.093811,190.839844 
C752.395813,192.893005 755.795044,194.807526 758.973816,197.036423 
C762.494385,199.504974 766.510071,198.927948 767.962769,195.871216 
C769.223633,193.218353 768.029419,189.091629 767.137634,185.830353 
C766.539673,183.643570 764.574768,181.830582 763.616577,180.428421 
C765.676575,179.309525 767.284119,178.436356 768.891724,177.563156 
C767.375061,175.546875 765.546204,171.650375 764.396057,171.841354 
C759.537537,172.648087 757.462097,168.343613 753.887329,167.019547 
C752.664490,166.566635 751.296204,162.862488 751.927551,161.853943 
C753.028442,160.095367 755.532410,159.045929 757.642029,158.161301 
C758.653442,157.737167 760.107788,158.369202 761.894165,158.588226 
C759.505859,153.008911 755.952820,149.353531 751.005249,150.361984 
C744.340027,151.720490 739.051880,155.919907 736.130920,161.929916 
C740.554932,167.684341 744.761536,172.661026 748.317017,178.066010 
C749.463745,179.809174 748.966003,182.675323 749.091919,185.034622 
C749.180115,186.688522 749.050171,188.354095 749.093811,190.839844 
z"/>
<path fill="#C0C0C0" opacity="1.000000" stroke="none" 
d="
M95.925995,217.346619 
C95.750412,212.902847 93.977921,210.039932 90.343834,207.928574 
C88.534348,206.877274 86.635788,204.748077 86.218979,202.798325 
C85.453453,199.217331 87.079529,194.503815 85.304413,191.903870 
C82.562271,187.887527 84.384323,184.514511 84.388008,180.853348 
C84.388466,180.399399 84.054039,179.805557 84.242203,179.512100 
C87.464920,174.485825 90.712593,169.474716 94.022377,164.505310 
C97.532585,159.234955 101.059563,153.973785 104.700737,148.794037 
C105.659660,147.429901 107.067604,146.381409 108.876190,144.585327 
C109.346176,147.324173 109.558517,148.561584 110.028801,151.302170 
C112.852631,147.202072 114.831177,144.329300 117.125572,140.997925 
C113.866226,137.602570 110.464905,134.518829 107.715218,130.935135 
C106.804604,129.748337 107.571632,127.274300 108.084572,125.368195 
C106.024261,121.571655 107.038300,118.535690 110.557930,115.995415 
C110.859535,115.777733 111.416527,115.486214 111.387825,115.301659 
C110.800217,111.524727 110.243149,107.737114 109.437653,104.003914 
C109.218422,102.987846 108.383263,101.563316 107.536293,101.309708 
C100.761520,99.281082 95.924011,92.765617 88.202751,92.987259 
C87.564552,93.005569 86.885330,92.867020 86.282463,92.645447 
C80.549454,90.538254 75.011261,89.553787 69.175545,92.894440 
C66.440376,94.460182 63.227634,95.378952 59.584522,93.566704 
C58.072205,92.814407 55.138058,94.638420 52.960590,95.552979 
C42.390026,99.992775 31.890692,104.603661 21.291857,108.973816 
C17.612860,110.490761 13.720107,111.489296 9.615906,111.815651 
C17.836359,108.046371 26.056812,104.277092 34.277267,100.507812 
C34.128025,99.952545 33.978783,99.397270 33.829540,98.842003 
C30.086334,98.842003 26.343126,98.842003 22.599918,98.842003 
C22.424091,98.393990 22.248266,97.945976 22.072439,97.497963 
C25.515574,94.760361 31.457895,93.327423 27.018097,85.746529 
C32.373722,84.384041 37.118183,83.354965 41.748577,81.949959 
C46.564312,80.488724 51.269840,78.664268 56.023560,76.998642 
C55.827335,76.157318 55.631107,75.315987 55.434879,74.474655 
C53.927540,74.656204 52.318184,74.561279 50.932507,75.072571 
C47.187904,76.454262 42.981804,75.609634 40.837143,72.429657 
C46.191662,70.302505 51.235256,68.034050 57.232487,69.754837 
C59.278584,70.341919 62.068722,68.335861 65.122902,67.312195 
C63.497574,65.224144 62.341015,63.738308 60.759789,61.706902 
C62.750328,60.864376 64.424339,59.906715 66.225594,59.436394 
C74.169136,57.362282 82.083191,55.087437 90.132278,53.526543 
C101.323196,51.356380 112.507019,50.729515 123.912025,53.303257 
C135.125214,55.833714 146.570404,57.523445 158.000839,58.806717 
C162.256042,59.284443 166.762421,57.592510 171.145950,56.841484 
C176.039230,56.003124 181.912994,52.994804 185.588638,54.715294 
C191.741043,57.595081 197.693054,54.581154 203.437958,56.642860 
C207.752457,58.191227 212.248856,59.232773 216.889145,60.564480 
C216.535095,61.058025 215.983994,61.826279 214.433029,63.988350 
C218.220932,63.988350 221.084457,64.616753 223.512939,63.856148 
C228.408752,62.322781 231.490463,63.488110 232.760498,68.437660 
C235.804993,66.490364 238.457031,64.552994 241.325150,63.019844 
C245.015030,61.047424 248.737213,61.596092 252.714767,62.818958 
C255.531631,63.684986 258.842499,62.788738 261.845062,63.250305 
C264.800385,63.704605 267.645081,64.878777 270.884979,65.839928 
C273.603241,64.673767 276.989014,63.094048 280.469116,61.760414 
C284.829254,60.089539 285.269836,57.645889 281.144684,54.084549 
C284.352631,52.433613 287.291046,50.688210 290.436127,49.481323 
C291.143646,49.209824 293.587494,51.364815 293.523804,51.483116 
C290.450928,57.190979 293.475403,58.633553 298.466156,58.837833 
C298.748871,58.849407 299.018860,59.171101 299.422089,59.430298 
C298.832581,60.543335 298.122650,61.619392 297.693390,62.797714 
C297.451904,63.460587 297.405121,64.755211 297.742950,64.951225 
C298.439758,65.355515 299.673950,65.594643 300.298370,65.232162 
C303.139679,63.582733 306.254150,62.102177 308.507629,59.810768 
C312.102509,56.155365 315.613678,56.267986 319.688293,58.442574 
C316.009338,65.602036 311.559448,69.261299 305.181061,69.143646 
C301.351288,69.073006 297.508362,70.509377 293.644531,71.090271 
C292.140686,71.316360 290.557220,71.122215 289.021332,70.988869 
C287.924652,70.893646 286.846893,70.580589 284.280670,70.070633 
C286.324432,72.618782 287.316223,73.855309 289.210114,76.216614 
C283.929382,77.139069 279.293915,78.379044 274.613922,78.579521 
C272.372223,78.675552 271.182343,78.199982 271.298615,81.025482 
C271.325287,81.674049 270.032349,82.571411 269.173584,83.030441 
C263.500549,86.062775 257.610352,88.731667 252.151169,92.102379 
C249.646057,93.649139 247.956985,96.517532 245.970398,98.706635 
C252.792145,110.411842 265.075623,111.042305 275.570404,116.523254 
C274.997131,118.034264 274.239838,120.096504 273.434052,122.139633 
C272.026093,125.709633 273.168213,131.443329 275.683441,131.631638 
C279.373901,131.907928 282.916901,130.131821 283.647064,126.347801 
C284.949249,119.599525 289.287109,116.386314 295.090424,113.875488 
C300.867157,111.376160 302.343658,107.935501 302.196686,101.591698 
C302.162842,100.130341 303.664551,98.534081 304.690186,97.173767 
C305.853424,95.630951 307.619080,94.472282 308.527679,92.819435 
C313.091675,84.516724 317.362305,82.834038 326.353546,86.840851 
C330.668182,88.763634 336.432281,90.372482 332.484100,97.599998 
C332.021820,98.446182 334.552887,100.927567 336.101501,103.261627 
C341.073669,100.222916 345.657532,97.421532 350.564117,94.422897 
C351.821442,101.826454 353.055389,109.092148 354.441467,117.253708 
C354.381317,117.318558 353.339417,118.442238 351.302765,120.638733 
C356.911804,120.658066 362.295837,115.830574 365.826416,123.276443 
C364.252899,124.894180 362.723389,127.542885 360.450653,128.612595 
C351.701935,132.730408 343.066101,136.846710 332.633270,135.199341 
C323.106537,133.695053 315.273102,139.567947 307.165161,143.561005 
C306.688477,143.795776 306.653595,144.927612 306.413116,145.641998 
C307.417419,145.705780 308.504456,146.052231 309.412384,145.786560 
C314.578033,144.275192 319.696442,142.602890 324.847229,141.039047 
C325.243591,140.918701 325.765686,141.212387 326.611084,141.396988 
C325.902374,142.853149 325.580109,144.531479 324.564697,145.389069 
C322.481781,147.148178 319.548370,148.887314 322.446198,151.535828 
C324.740936,153.633133 328.127716,154.651474 331.174927,155.743256 
C332.165192,156.098068 333.614716,155.171143 334.854187,154.830475 
C335.026550,155.296982 335.198914,155.763504 335.371277,156.230011 
C328.311432,159.077087 321.251556,161.924164 314.191711,164.771240 
C313.884277,164.149475 313.576813,163.527695 313.269379,162.905930 
C316.368286,161.159302 319.467194,159.412659 322.566101,157.666016 
C322.495087,157.212891 322.424072,156.759750 322.353058,156.306625 
C320.024872,156.559525 317.510040,156.333466 315.403351,157.154572 
C308.931549,159.677094 302.594696,162.553528 296.263214,165.420151 
C295.334961,165.840424 294.216339,166.860519 294.046265,167.764908 
C293.136505,172.602219 289.209259,173.815033 285.455170,174.877853 
C281.411102,176.022812 277.542206,176.884155 275.171753,181.005524 
C274.390594,182.363647 271.964569,182.671158 270.584991,183.814301 
C268.569244,185.484604 266.819153,187.475464 264.718842,189.565536 
C264.870514,189.651062 263.976532,189.147034 263.082520,188.643021 
C262.401184,190.102859 260.888885,191.752274 261.171722,192.992126 
C263.190918,201.842972 256.879364,204.566452 251.022491,208.222488 
C245.505493,211.666397 240.407288,215.856689 235.456039,220.104630 
C232.193924,222.903366 232.939957,226.918777 233.346634,230.821243 
C233.921204,236.334824 236.722839,242.138229 232.028351,247.262497 
C228.579376,246.027679 225.356064,239.061264 226.212784,234.693588 
C227.331299,228.991241 225.051712,226.646088 219.034225,226.761063 
C217.347229,226.793304 215.564621,225.833023 213.952072,225.063507 
C206.488983,221.502121 202.584534,223.982269 198.930420,230.170120 
C196.266129,229.254242 193.556488,227.837692 190.712097,227.473450 
C187.493240,227.061264 184.131332,227.412506 180.878006,227.810699 
C179.706863,227.954056 178.768661,229.533295 177.557465,229.887955 
C162.762009,234.220032 162.802582,248.237686 159.596680,259.276672 
C158.005234,264.756561 160.704605,272.140594 165.582001,276.938599 
C171.193161,282.458496 184.825668,278.787476 187.862198,271.200958 
C190.278503,265.164001 196.063202,263.334595 201.983994,267.043060 
C199.103592,273.443207 196.211594,279.898376 193.293732,286.341827 
C191.458313,290.394958 191.945862,291.111145 196.314560,291.021545 
C200.708755,290.931396 205.110641,290.839264 209.499741,291.001770 
C212.667953,291.119080 213.057373,293.254425 212.556625,295.934448 
C211.649750,300.788177 210.745895,305.649353 210.084930,310.540405 
C209.147354,317.478333 217.182404,323.903442 223.575043,321.172455 
C229.228912,318.757050 233.503204,320.599487 238.017181,325.545654 
C243.605011,316.353729 251.560181,310.663666 261.753998,306.494598 
C258.072937,313.706604 257.778656,317.765747 260.832947,322.299011 
C261.817993,320.264832 263.687744,317.900299 263.191071,317.189667 
C259.630280,312.094910 265.152618,311.557465 267.072357,309.942719 
C268.069733,309.103790 271.184418,310.468323 273.201355,311.217804 
C278.009216,313.004303 282.918610,316.903870 287.443848,316.459045 
C293.067932,315.906158 297.238586,317.860321 301.334473,320.163025 
C305.326965,322.407532 309.062958,325.646057 311.921631,329.236389 
C315.682098,333.959198 321.714844,337.202393 327.704590,336.194000 
C332.823761,335.332153 341.789185,340.969421 343.986328,346.455902 
C345.189606,349.460510 347.094421,352.439301 347.272064,355.511322 
C347.393921,357.618286 345.302582,360.028198 343.809662,362.007904 
C342.068848,364.316254 339.902130,366.303375 337.920227,368.429901 
C338.424377,368.957062 338.928497,369.484222 339.432648,370.011383 
C340.827606,368.968536 342.259155,367.970551 343.607910,366.871002 
C345.145599,365.617401 346.425446,363.670654 348.158325,363.141235 
C349.826508,362.631531 351.929962,363.546570 353.842194,363.835632 
C353.292999,365.324371 352.985809,366.978607 352.117065,368.248840 
C351.438629,369.240906 350.062958,369.756165 349.073090,370.431427 
C352.920776,372.169678 352.920776,372.169678 356.287018,369.212311 
C360.321899,365.667511 367.113464,366.193512 369.912933,370.640228 
C370.848602,372.126495 370.480286,374.433716 370.749908,376.720581 
C378.236847,371.811066 385.384247,375.859009 392.524353,376.385254 
C393.006256,376.420776 393.359680,377.378357 393.887756,377.738678 
C397.897064,380.474335 401.667938,383.769287 406.037170,385.710144 
C410.658661,387.763000 413.686005,390.350647 412.702454,394.950317 
C411.941040,398.511047 410.217834,402.028015 408.241730,405.131134 
C404.815765,410.511169 400.714478,415.458801 397.225922,420.802887 
C396.234283,422.321960 395.787079,424.691376 396.105865,426.490875 
C398.222534,438.438843 394.599762,449.379517 390.298615,460.124878 
C388.538605,464.521912 385.858093,467.395355 379.681091,466.497925 
C376.186035,465.990143 372.028748,469.509186 368.289886,471.446411 
C366.553711,472.345978 364.673737,473.514648 363.642883,475.078186 
C362.567352,476.709503 362.186798,478.934479 361.957458,480.951660 
C361.708618,483.140320 362.546600,485.557709 361.937378,487.582520 
C358.756470,498.154449 353.469025,507.782074 347.300781,516.838501 
C345.415283,519.606873 342.026123,521.177734 338.040863,519.121277 
C335.528412,517.824890 332.565002,517.402405 329.803894,516.587891 
C329.293335,517.290833 328.782745,517.993835 328.272156,518.696777 
C330.480316,520.366638 333.339142,521.606445 334.778778,523.784363 
C339.770813,531.336609 336.300018,537.463928 327.070374,537.989075 
C325.907562,538.055237 324.737671,537.987061 323.571655,538.010071 
C320.727112,538.066162 319.844727,538.963562 320.842743,542.072693 
C321.473816,544.038635 320.526306,546.511353 320.264862,548.962891 
C318.850098,548.639282 318.388489,548.508057 317.918060,548.430420 
C315.749329,548.072449 313.578094,547.729370 311.407776,547.380981 
C312.761658,549.654541 314.049500,551.971985 315.512390,554.173096 
C315.915741,554.780029 316.840942,555.040222 317.606476,555.508240 
C315.435852,559.991638 312.909912,564.199341 311.490662,568.752075 
C311.061737,570.127991 313.291748,573.061584 315.016174,574.233459 
C319.038330,576.966797 319.439728,579.915222 317.083954,583.838318 
C314.596222,587.981201 313.300446,592.270813 316.444275,596.386047 
C313.724182,602.416016 308.679626,598.805237 305.051910,599.406982 
C302.993591,597.564148 300.573792,595.999512 298.978790,593.828918 
C296.571045,590.552368 294.430176,586.993774 292.742035,583.296570 
C290.745117,578.923096 289.749756,573.975525 283.951263,572.624023 
C289.576935,567.359192 288.211029,566.367310 286.554291,559.476807 
C285.138885,553.590027 279.410980,550.916565 278.713989,546.402527 
C277.682953,539.725098 274.467468,533.609619 275.388611,526.150391 
C276.435730,517.671326 274.171906,508.806702 273.578552,500.093903 
C273.145386,493.733368 273.852173,487.199921 272.660309,481.011322 
C271.276825,473.827759 272.571808,466.847137 272.392914,459.785614 
C272.048981,446.207764 262.948944,439.327667 252.106781,434.156189 
C247.945175,432.171265 245.241684,429.342529 243.109772,425.427216 
C240.765335,421.121643 237.745453,417.180511 235.450134,412.852448 
C232.749664,407.760376 230.644363,402.354919 228.009552,397.224762 
C226.904037,395.072296 225.386139,392.943909 223.559265,391.387146 
C219.217529,387.687225 218.381638,383.765503 221.483704,379.122528 
C222.493042,377.611847 223.541183,376.127075 224.820282,374.269257 
C218.594238,372.246185 219.671860,368.380280 222.333694,364.352448 
C225.241501,359.952393 228.108429,355.494019 231.396851,351.384064 
C236.357422,345.184235 236.589645,338.570435 234.220474,331.411011 
C233.469299,329.141052 233.151611,326.727631 232.449631,323.534058 
C227.685593,320.452057 224.218613,321.561890 222.721527,327.569214 
C210.634216,323.651215 204.539307,322.219147 194.678024,300.804230 
C189.769836,302.812744 179.967987,299.530457 176.350830,294.667145 
C171.534454,288.191467 169.752106,287.698761 162.335587,289.945557 
C160.631302,290.461884 158.369293,290.501678 156.782791,289.805817 
C149.951630,286.809601 143.133453,283.717987 136.602982,280.128998 
C133.193222,278.255096 130.288574,275.388062 127.387184,272.718140 
C126.709801,272.094788 126.511200,270.277252 126.875900,269.302277 
C129.731140,261.669067 125.273415,256.239655 121.264786,250.856949 
C115.209152,242.725586 110.142456,234.110016 108.173798,224.111404 
C107.522606,220.804062 105.932510,218.743286 103.222733,219.339523 
C99.939598,220.061935 99.728851,222.992020 100.876389,226.150269 
C104.514130,236.162079 107.935875,246.252365 111.468185,256.389954 
C106.944443,254.547150 104.737274,250.712387 104.662750,246.335724 
C104.635071,244.710022 103.229172,242.605667 101.821724,241.611954 
C99.046852,239.652786 97.639931,237.995102 99.078499,234.273575 
C99.712738,232.632812 98.356712,230.001266 97.443565,228.033310 
C95.897949,224.702255 93.859543,221.560516 95.925995,217.346619 
M230.271149,145.507919 
C227.917465,147.110962 225.563782,148.713989 223.210114,150.317032 
C223.306473,150.784378 223.402817,151.251724 223.499176,151.719070 
C225.496796,151.884567 227.931747,152.855759 229.405350,152.055878 
C233.005020,150.101883 236.066956,149.926743 239.562119,152.108109 
C240.563660,152.733200 242.302155,152.092194 243.685181,152.220779 
C244.632843,152.308899 245.550079,152.724075 247.513748,153.291458 
C235.700989,156.221069 235.689575,156.213730 230.975189,163.546112 
C229.993698,165.072647 229.342789,166.860016 228.170578,168.205841 
C225.537369,171.229034 226.619598,173.046555 230.735291,175.088791 
C232.548645,172.027161 234.653290,169.185257 236.014297,166.023239 
C238.607651,159.997955 244.467606,156.305832 249.663010,157.925491 
C249.608765,160.564636 243.477936,162.491806 248.346817,165.529358 
C252.831772,168.327423 254.621155,164.088196 256.010681,162.180862 
C258.587738,161.323959 260.658478,161.181229 261.730194,160.072662 
C262.364838,159.416199 261.938110,156.506256 261.076813,155.895569 
C259.460510,154.749542 257.050812,153.775253 255.207367,154.094421 
C251.397903,154.753952 249.240479,153.234573 249.452576,149.068008 
C249.658890,145.015121 245.176590,141.304596 241.297699,142.391876 
C237.825302,143.365219 234.385345,144.454346 230.271149,145.507919 
M249.188751,170.866653 
C248.030304,171.745560 246.871857,172.624481 245.713409,173.503387 
C246.088074,174.176163 246.462753,174.848923 246.837418,175.521698 
C250.471848,174.158020 254.106293,172.794357 257.968750,171.345139 
C255.021378,165.835938 252.422379,169.955994 249.188751,170.866653 
M269.641205,166.677246 
C270.972412,165.806519 272.303589,164.935776 273.825348,163.940399 
C269.475983,161.370789 266.278961,162.233887 263.892914,166.908066 
C265.817474,166.908066 267.357208,166.908066 269.641205,166.677246 
z"/>
<path fill="#C0C0C0" opacity="1.000000" stroke="none" 
d="
M1082.550049,426.364960 
C1083.982666,427.526123 1084.996826,428.662750 1086.203369,429.532166 
C1090.116211,432.351776 1090.600342,431.841583 1092.435303,427.416412 
C1093.840332,424.028381 1095.750977,420.456116 1100.289917,419.936432 
C1101.401855,419.809082 1102.609375,419.376465 1103.509521,418.721893 
C1109.587402,414.301941 1114.959839,417.360596 1120.454346,419.706787 
C1120.358643,420.473663 1120.429199,420.862976 1120.267090,421.070831 
C1113.899292,429.237305 1114.926270,431.697968 1123.672607,437.357147 
C1125.755981,438.705109 1128.132812,439.790009 1129.807129,441.539124 
C1133.048462,444.925140 1134.634033,442.595795 1136.938110,440.359253 
C1141.901123,435.541412 1141.754395,429.148285 1143.060791,423.122772 
C1143.731567,420.028839 1145.188599,417.105377 1147.491577,414.201233 
C1148.036011,415.494781 1148.486084,416.838593 1149.142944,418.072266 
C1150.964355,421.493652 1153.382568,424.695496 1154.611938,428.308350 
C1156.037842,432.498199 1157.234863,437.064880 1157.059204,441.408508 
C1156.912354,445.046356 1156.968506,447.561462 1159.681519,450.481171 
C1162.757812,453.792145 1164.639404,458.210968 1167.053345,462.140167 
C1169.453735,466.047455 1171.610229,470.140503 1174.357056,473.788086 
C1176.799072,477.030853 1176.502563,480.146637 1176.148193,483.904907 
C1174.916260,496.968628 1169.133423,507.010620 1158.036987,514.004211 
C1157.341309,514.442627 1156.597290,514.885071 1156.066772,515.492493 
C1150.563843,521.792847 1145.100220,528.127502 1139.366211,534.752319 
C1133.395142,532.376526 1128.968506,535.946960 1124.506714,539.751831 
C1122.852417,538.256592 1121.266724,536.823425 1119.520752,535.245300 
C1113.401367,540.122192 1108.940918,536.010193 1105.813354,533.805481 
C1104.836670,527.495178 1104.089600,522.668701 1103.342651,517.842224 
C1102.979736,517.897278 1102.616821,517.952332 1102.254028,518.007385 
C1103.153320,516.451050 1104.052734,514.894714 1104.952026,513.338440 
C1104.582275,512.941650 1104.212524,512.544922 1103.842896,512.148193 
C1100.301270,514.429749 1096.759766,516.711365 1093.645264,518.717896 
C1091.889404,516.004944 1090.226196,512.772461 1087.952026,510.050293 
C1082.048096,502.983643 1074.259644,506.669464 1067.481934,507.589722 
C1061.414307,508.413574 1055.707397,511.686462 1049.743286,513.567993 
C1046.803101,514.495544 1043.595703,514.539978 1040.589844,515.302429 
C1034.539062,516.837219 1028.544067,518.592163 1022.524963,520.252258 
C1018.557556,521.346497 1015.587524,519.996094 1013.276611,516.735046 
C1018.037720,512.306335 1020.126038,507.558411 1019.225830,500.913574 
C1018.308960,494.145691 1018.979370,487.148376 1019.133301,480.255493 
C1019.219238,476.408630 1019.392090,472.523132 1020.033203,468.740997 
C1020.642212,465.148315 1022.653625,462.730865 1026.595825,461.564514 
C1034.292969,459.287231 1041.790161,456.341034 1049.400513,453.761475 
C1055.870850,451.568268 1058.856323,446.290283 1061.261353,440.135773 
C1062.960083,440.660614 1064.425171,441.113251 1065.010620,441.294159 
C1069.976440,434.775238 1073.678467,427.892242 1082.550049,426.364960 
z"/>
<path fill="#C0C0C0" opacity="1.000000" stroke="none" 
d="
M410.381500,89.714050 
C403.951569,85.801254 402.814087,82.867088 404.632111,75.662689 
C404.789185,75.040321 404.897675,74.346306 404.791840,73.726021 
C403.506592,66.195290 403.805603,65.573685 410.860138,61.581314 
C416.299683,58.502899 418.645111,55.158581 415.700317,51.103565 
C412.148376,46.212528 411.209381,40.177517 407.234802,35.649384 
C403.224609,31.080660 398.211853,30.849905 392.747559,31.134081 
C388.637451,31.347832 384.495728,30.953236 380.130127,30.822311 
C380.504150,28.080416 380.695618,26.676723 380.924408,24.999590 
C391.627502,24.303659 401.982788,22.246414 411.786407,17.284603 
C420.191803,13.030440 429.384277,14.187207 438.499512,14.941793 
C444.829010,15.465772 451.300079,15.188884 457.631989,14.535044 
C464.826050,13.792175 472.043457,10.810818 479.057617,11.343846 
C490.839386,12.239186 502.657867,8.188197 514.309448,11.975736 
C514.770020,12.125453 515.417664,11.878989 515.782593,12.116986 
C521.987610,16.163921 528.699463,16.725067 535.834900,14.537470 
C535.909546,15.141300 535.984253,15.745131 536.058899,16.348961 
C532.636597,17.226656 529.255615,18.357283 525.782593,18.924412 
C520.185730,19.838343 517.820190,22.305065 517.442932,28.215914 
C517.406677,28.785192 516.973206,29.379557 516.601685,29.869455 
C510.902374,37.384880 504.428162,43.550919 493.976990,42.709614 
C493.884979,42.702206 493.772522,42.949120 493.181671,43.685051 
C496.691162,46.080151 500.196014,48.472065 503.700867,50.863983 
C503.448730,51.485195 503.196625,52.106407 502.944519,52.727619 
C500.649048,52.003353 498.059540,51.728672 496.119904,50.460243 
C492.208893,47.902637 492.441498,47.729649 490.188568,51.642200 
C489.735626,52.428848 488.346863,52.676643 487.464661,54.293900 
C490.745087,54.526531 494.025543,54.759159 497.306000,54.991791 
C497.345093,55.798393 497.384186,56.604992 497.423309,57.411594 
C489.338013,58.286404 481.190277,58.801403 473.194092,60.189445 
C469.258850,60.872543 465.026794,62.451557 461.960541,64.911079 
C457.586700,68.419426 452.793060,70.452843 447.557159,70.797127 
C438.792053,71.373489 433.437225,76.328667 428.908447,83.076584 
C426.923798,86.033730 424.709534,88.963455 422.083710,91.334320 
C418.007050,95.015160 414.383911,91.448853 410.381500,89.714050 
z"/>
<path fill="#C0C0C0" opacity="1.000000" stroke="none" 
d="
M1181.956543,412.056061 
C1175.660278,411.061432 1169.696777,409.772675 1166.378296,403.186035 
C1165.359741,401.164490 1162.824951,399.792542 1160.781250,398.427399 
C1157.315186,396.112061 1154.656006,397.086456 1152.632812,400.703033 
C1150.217407,405.020660 1146.082520,406.273193 1142.105835,403.270691 
C1139.068237,400.977386 1136.702148,398.037750 1132.323486,399.606964 
C1131.923096,399.750427 1131.202759,399.000946 1130.320679,398.484406 
C1131.762573,397.282227 1133.091431,396.174194 1134.575928,394.936523 
C1133.349365,390.388489 1131.227173,386.772125 1126.462646,385.171387 
C1121.506470,383.506348 1116.623169,381.624512 1111.667603,379.958069 
C1108.697266,378.959259 1108.569458,376.727295 1111.638672,372.994446 
C1108.989990,371.570587 1106.397461,370.176880 1103.768188,368.763458 
C1110.189453,364.037720 1112.751953,365.034729 1115.150024,372.647003 
C1115.853760,374.880646 1117.567139,376.796204 1118.881714,378.962860 
C1120.827393,377.229858 1122.247803,375.956787 1123.676636,374.693237 
C1128.946777,370.032990 1134.006958,370.144592 1140.136963,373.858124 
C1148.127930,378.698883 1156.852783,382.315002 1165.158813,386.655365 
C1168.371338,388.334015 1169.057129,390.869202 1169.170410,394.906250 
C1169.274414,398.614624 1173.093628,402.401520 1175.742065,405.789490 
C1177.408447,407.920959 1179.933105,409.381287 1182.060791,411.544067 
C1182.048950,411.945435 1181.956543,412.056061 1181.956543,412.056061 
z"/>
<path fill="#C0C0C0" opacity="1.000000" stroke="none" 
d="
M1040.718750,375.520569 
C1038.781128,379.100037 1036.724243,379.696808 1032.957642,378.223419 
C1029.529541,376.882385 1025.405884,377.225098 1021.578430,377.025635 
C1017.832458,376.830383 1015.358582,375.121307 1014.306641,371.529236 
C1013.243225,367.897461 1012.013550,364.277679 1011.415710,360.562683 
C1011.143311,358.870544 1012.216309,356.961914 1012.747314,354.884674 
C1014.833862,355.592102 1016.194397,356.053375 1017.740173,356.577423 
C1018.109680,356.138672 1018.498169,355.622864 1018.942017,355.160217 
C1020.592102,353.440063 1022.247986,351.725098 1023.925476,350.031647 
C1025.603271,348.337769 1027.274780,346.634949 1029.013672,345.005035 
C1030.500122,343.611816 1032.030884,342.256653 1033.627441,340.992706 
C1035.659790,339.383911 1038.439575,338.298004 1039.721558,336.250610 
C1042.360718,332.035736 1044.526123,332.517456 1047.341431,335.787659 
C1048.304565,336.906372 1049.615356,337.725800 1050.804321,338.712769 
C1049.059814,342.173492 1046.415894,345.144928 1046.355835,348.167694 
C1046.293945,351.280457 1048.750244,354.443298 1049.510498,356.206329 
C1046.438110,362.953674 1043.653687,369.068451 1040.718750,375.520569 
z"/>
<path fill="#C0C0C0" opacity="1.000000" stroke="none" 
d="
M332.582001,52.741375 
C329.456238,53.279037 326.671875,53.829060 323.867340,53.966412 
C320.318726,54.140205 316.731476,54.212978 313.203552,53.878845 
C310.834076,53.654438 308.538635,52.648720 306.189972,51.986904 
C308.171387,45.963902 314.781555,41.702412 322.522339,41.231556 
C320.908630,43.498524 319.434113,45.569965 317.959564,47.641403 
C318.263245,47.766880 318.566925,47.892361 318.870575,48.017838 
C322.409180,46.256729 325.804626,43.989597 329.542297,42.932152 
C331.645081,42.337246 334.775726,43.079163 336.628571,44.379642 
C340.381744,47.013947 343.798035,49.182095 346.767731,47.009426 
C351.658234,49.420044 355.641846,51.248913 359.476440,53.349823 
C360.748444,54.046741 362.722717,55.737217 362.523712,56.471565 
C361.303162,60.976086 364.076904,62.788059 367.188049,64.641083 
C368.551971,65.453423 369.766388,66.516716 371.005096,67.433777 
C367.363708,73.637886 367.423859,73.503220 361.269165,70.753998 
C359.368835,69.905144 357.042999,70.008850 354.224823,69.569206 
C354.905487,74.424927 359.182892,77.744095 354.977448,81.277229 
C351.951324,80.517525 348.904022,79.752495 345.856720,78.987473 
C345.681946,79.499336 345.507172,80.011200 345.332397,80.523064 
C347.062805,81.890633 348.793213,83.258194 350.606812,84.691521 
C346.124390,86.764465 338.893219,85.095352 336.320740,80.223152 
C333.348358,74.593475 329.596436,74.354454 324.489960,75.981705 
C322.991364,76.459259 321.265167,76.222694 319.643311,76.313431 
C319.570740,75.613510 319.498169,74.913589 319.425598,74.213669 
C322.153320,73.920197 324.960815,73.084274 327.588501,73.470802 
C330.859894,73.952026 333.360077,74.588890 335.770721,71.155663 
C337.307251,68.967339 340.136200,67.553551 343.660522,69.076782 
C345.532593,69.885880 348.161835,68.943016 351.101898,68.747627 
C346.006805,63.234516 341.788696,58.470280 337.301788,53.974323 
C336.338043,53.008656 334.402405,53.012974 332.582001,52.741375 
z"/>
<path fill="#C0C0C0" opacity="1.000000" stroke="none" 
d="
M751.752197,469.377380 
C748.410950,476.268585 743.727844,479.051453 739.266602,477.096405 
C735.032715,475.241028 732.222473,465.856720 735.039795,461.599915 
C738.521729,456.339050 740.669434,451.300934 739.223083,444.559357 
C737.982849,438.778717 740.635742,437.332764 745.833374,434.821594 
C752.318237,431.688568 757.971191,427.020172 760.568359,419.464630 
C763.464294,424.503448 764.740845,429.311218 762.587830,435.064606 
C758.889526,444.947266 755.785095,455.053223 752.496094,465.086670 
C752.090698,466.323608 752.081177,467.690308 751.752197,469.377380 
z"/>
<path fill="#C0C0C0" opacity="1.000000" stroke="none" 
d="
M964.799011,351.315186 
C960.958374,347.115479 957.364563,343.177856 953.770752,339.240234 
C954.162598,338.834381 954.554443,338.428528 954.946289,338.022675 
C961.383972,339.589325 966.598816,342.715759 970.892273,348.261963 
C973.915833,352.167816 978.634827,354.718475 982.288086,358.198334 
C984.011230,359.839630 984.894348,362.328430 986.360413,364.281311 
C989.231140,368.105225 992.477356,371.668335 995.103943,375.645996 
C996.521790,377.793152 997.773743,380.627625 997.609497,383.050934 
C997.487732,384.846802 995.221558,387.418976 993.432739,387.912415 
C991.755432,388.375031 988.688477,387.137787 987.559143,385.645203 
C983.627075,380.448181 980.272766,374.814240 976.694336,369.349365 
C972.814087,363.423615 968.928833,357.501160 964.799011,351.315186 
z"/>
<path fill="#C0C0C0" opacity="1.000000" stroke="none" 
d="
M346.040955,24.944185 
C347.454285,24.839359 348.867615,24.734533 351.054749,24.572313 
C349.919708,22.696196 349.219086,21.538149 348.265015,19.961161 
C356.070953,17.767258 364.327881,22.900517 371.521667,16.993189 
C364.954987,16.630821 358.388275,16.268454 351.821594,15.906084 
C351.817139,15.594803 351.812683,15.283522 351.808228,14.972239 
C371.230194,13.377506 390.652161,11.782774 411.346008,10.083608 
C400.667114,15.970064 390.561554,19.589445 379.681671,21.012161 
C378.060394,21.224169 376.348694,21.346689 374.873352,21.970566 
C367.608734,25.042549 360.419159,28.291412 353.177368,31.418291 
C352.096802,31.884846 350.539673,32.648575 349.783173,32.228951 
C345.942841,30.098679 342.222595,29.705877 337.873383,30.779312 
C335.696381,31.316618 333.012482,29.799898 330.657410,28.641249 
C335.977142,28.677567 341.418549,30.638594 345.857758,25.473732 
C345.951141,25.054197 346.040955,24.944185 346.040955,24.944185 
z"/>
<path fill="#C0C0C0" opacity="1.000000" stroke="none" 
d="
M233.044662,42.922447 
C235.649582,43.305943 238.246399,43.761364 240.861404,44.055134 
C244.306763,44.442184 247.766388,44.702255 251.219864,45.016918 
C251.376846,44.515320 251.533829,44.013725 251.690811,43.512127 
C252.197266,44.936016 252.703720,46.359905 253.301331,48.040127 
C256.354004,46.058731 259.117249,44.265217 261.880463,42.471703 
C262.274933,42.920185 262.669373,43.368671 263.063843,43.817158 
C261.890900,46.101933 260.717987,48.386703 259.427094,50.901234 
C261.049805,51.900902 262.701874,52.918678 264.387543,53.957127 
C258.923431,58.483982 255.407181,59.246609 249.186829,57.987061 
C247.087875,57.562046 244.433594,57.371422 242.657410,58.286045 
C234.077255,62.704304 226.464447,60.305557 218.934555,54.686787 
C223.104416,54.686787 227.274277,54.686787 231.444138,54.686787 
C231.470535,53.963860 231.496948,53.240929 231.523346,52.518002 
C228.014084,52.255997 224.504807,51.993992 221.699783,51.784569 
C222.634171,50.959148 223.925171,49.818699 225.159363,48.007545 
C226.712097,46.557621 228.351776,45.833744 229.920914,44.980190 
C231.012344,44.386505 232.006851,43.614689 233.044662,42.922447 
z"/>
<path fill="#C0C0C0" opacity="1.000000" stroke="none" 
d="
M560.044312,133.027313 
C554.797119,133.989410 549.969604,134.933533 545.142090,135.877670 
C545.044128,135.672821 544.946167,135.467972 544.848206,135.263138 
C547.441284,134.158112 550.034302,133.053085 553.829895,131.435638 
C550.798767,130.357285 548.922424,129.689758 545.791992,128.576096 
C548.532898,126.213776 551.567688,124.675934 552.709167,122.247993 
C553.514526,120.535027 551.751099,117.614403 551.134460,115.232956 
C545.428772,116.737045 547.042664,111.304871 546.636902,109.377052 
C546.229980,107.444145 548.694031,104.906868 549.584412,103.228935 
C552.215576,104.880020 553.746460,105.840683 555.382507,106.867317 
C554.417114,108.005836 553.366516,109.244835 551.924316,110.945671 
C557.917053,112.461044 559.726685,117.249161 562.109009,121.816002 
C563.198425,123.904366 565.893616,125.155022 567.903503,126.821167 
C566.963013,128.122375 565.531067,130.103516 564.099121,132.084671 
C564.383118,132.392899 564.667114,132.701141 564.951111,133.009369 
C563.455444,133.009369 561.959717,133.009369 560.044312,133.027313 
z"/>
<path fill="#C0C0C0" opacity="1.000000" stroke="none" 
d="
M601.336426,23.835133 
C605.427917,23.515167 609.357971,23.654144 613.284790,23.589634 
C616.050049,23.544207 618.810730,23.222246 622.515991,22.956039 
C622.599731,23.090881 623.313171,24.239901 623.971558,25.300192 
C629.447144,16.478722 637.319641,25.473133 643.285889,21.622890 
C641.706543,25.864515 641.706543,25.864515 628.069885,25.301304 
C631.533142,27.260405 634.996399,29.219505 638.459595,31.178606 
C638.379456,31.417253 638.299377,31.655901 638.219238,31.894548 
C635.576416,31.713999 632.933594,31.533447 630.516052,31.368288 
C629.390991,30.029905 628.400208,28.097137 626.838501,27.336033 
C626.138489,26.994915 624.168274,28.867289 622.999451,29.973089 
C621.229614,31.647516 619.656433,33.529694 617.634888,35.718536 
C614.942688,34.305008 612.123657,32.824852 608.068176,30.695547 
C610.908997,30.243938 612.536621,29.985193 614.164246,29.726450 
C614.279175,29.405634 614.394104,29.084818 614.509094,28.764002 
C613.340515,28.498709 612.121216,27.875114 611.012573,28.032261 
C606.951111,28.607975 603.464355,28.037621 601.336426,23.835133 
z"/>
<path fill="#C0C0C0" opacity="1.000000" stroke="none" 
d="
M1202.237915,559.350952 
C1205.681519,557.302673 1208.868408,555.554565 1211.888916,553.555054 
C1214.767822,551.649353 1217.473267,549.481323 1220.254639,547.428894 
C1222.279541,549.556213 1224.312744,551.741333 1220.922607,553.928162 
C1211.633667,559.919922 1202.269653,565.799927 1192.827637,571.547119 
C1189.239990,573.730835 1185.371948,573.771484 1181.001465,571.357727 
C1186.568359,564.393250 1194.619751,562.613220 1202.237915,559.350952 
z"/>
<path fill="#C0C0C0" opacity="1.000000" stroke="none" 
d="
M1059.875244,368.279449 
C1063.158569,368.018463 1066.154785,367.524231 1069.151123,367.029968 
C1063.801514,369.704407 1063.468506,373.269440 1066.354614,378.012909 
C1067.186646,379.380493 1066.857300,381.454773 1067.060547,383.205048 
C1066.533813,383.479065 1066.007080,383.753052 1065.480347,384.027039 
C1063.592773,381.248810 1061.705078,378.470581 1059.696533,375.514526 
C1055.380005,376.967957 1056.607300,380.211884 1057.154297,383.385498 
C1057.357666,384.566254 1056.987915,385.947144 1056.516968,387.086884 
C1056.355835,387.476654 1055.087402,387.408691 1054.324951,387.549927 
C1054.105591,386.250702 1054.282715,384.675507 1053.601929,383.697571 
C1049.495850,377.799927 1055.165527,372.867371 1055.062256,367.382782 
C1055.029175,365.622925 1055.283691,363.581329 1056.171143,362.139130 
C1057.913330,359.308014 1059.413940,356.458649 1064.235596,357.663605 
C1068.295776,358.678284 1072.879517,357.598053 1076.929688,357.455750 
C1075.184448,362.456177 1073.483398,362.954254 1067.558228,361.000641 
C1065.175781,360.215088 1061.856201,360.388123 1059.625122,361.478912 
C1056.435791,363.038025 1056.550171,365.819824 1059.875244,368.279449 
z"/>
<path fill="#C0C0C0" opacity="1.000000" stroke="none" 
d="
M754.617920,33.475792 
C757.104126,33.499043 759.223083,33.499043 761.342041,33.499043 
C761.394165,34.016201 761.446289,34.533360 761.498413,35.050514 
C758.241821,35.701172 754.830872,35.942192 751.764648,37.097912 
C747.092712,38.858829 742.141235,40.576546 738.257812,43.551781 
C733.561096,47.150082 734.008972,49.491047 737.942139,54.462009 
C733.738281,53.238266 729.534424,52.014523 725.257324,50.769463 
C729.990723,40.087772 735.352051,33.701298 746.547302,34.885643 
C749.036682,35.148987 751.678833,33.968334 754.617920,33.475792 
z"/>
<path fill="#C0C0C0" opacity="1.000000" stroke="none" 
d="
M233.247437,42.643524 
C232.006851,43.614689 231.012344,44.386505 229.920914,44.980190 
C228.351776,45.833744 226.712097,46.557621 225.034454,47.710617 
C219.498322,44.726810 214.958939,48.419750 210.038864,49.843464 
C208.375015,50.324932 206.290390,49.352306 204.484787,48.395950 
C214.708038,41.546947 224.498230,33.834061 237.377609,41.632607 
C235.984482,41.892258 234.717346,42.128429 233.247437,42.643524 
z"/>
<path fill="#C0C0C0" opacity="1.000000" stroke="none" 
d="
M1240.325928,521.968384 
C1240.829346,523.642822 1241.367554,525.161682 1241.178955,526.584106 
C1240.527344,531.500732 1244.890137,535.836121 1249.548096,534.693787 
C1248.193359,538.788635 1231.390869,550.551025 1227.976196,550.014954 
C1229.151855,548.785889 1230.450195,547.428528 1231.793091,546.024658 
C1231.127563,544.333923 1230.601074,542.996338 1229.926270,541.281799 
C1231.687256,539.972717 1233.220581,538.316040 1235.115234,537.525513 
C1239.976562,535.497253 1240.345825,531.816528 1239.720947,527.368896 
C1239.465820,525.552368 1239.904541,523.638306 1240.325928,521.968384 
z"/>
<path fill="#C0C0C0" opacity="1.000000" stroke="none" 
d="
M1005.864319,391.984741 
C1010.551575,394.490814 1014.947754,395.428650 1019.697693,393.256073 
C1020.312683,392.974823 1021.363831,393.250824 1022.052734,393.592133 
C1026.570190,395.829895 1031.043457,398.156647 1035.531128,400.454346 
C1035.421875,400.970795 1035.312500,401.487244 1035.203247,402.003723 
C1022.203918,399.847839 1009.204651,397.691986 995.418640,395.405640 
C998.507080,390.149261 1001.894287,390.713348 1005.864319,391.984741 
z"/>
<path fill="#C0C0C0" opacity="1.000000" stroke="none" 
d="
M249.441223,271.734680 
C245.386230,271.382324 241.695450,270.892944 238.786255,270.507202 
C236.898376,265.361664 232.261993,263.058197 228.063248,261.877716 
C223.571457,260.614899 218.477676,261.493317 213.887695,261.439911 
C217.389725,257.703583 223.025589,256.682617 227.919861,258.243927 
C236.797043,261.075775 245.208557,265.367401 253.814453,269.049683 
C253.656097,269.546478 253.497757,270.043274 253.339401,270.540070 
C252.161407,270.892609 250.983414,271.245148 249.441223,271.734680 
z"/>
<path fill="#C0C0C0" opacity="1.000000" stroke="none" 
d="
M519.644409,75.871002 
C511.703766,80.626183 503.853699,81.738373 495.709076,76.589722 
C495.928467,71.484558 502.595184,71.306564 504.373535,71.762352 
C510.450867,73.319923 517.293335,66.463875 522.871887,73.569954 
C521.760071,74.349022 520.841492,74.992645 519.644409,75.871002 
z"/>
<path fill="#C0C0C0" opacity="1.000000" stroke="none" 
d="
M1060.621338,286.325562 
C1060.167236,288.354828 1059.508911,290.029510 1058.967407,291.741150 
C1057.902100,295.109283 1061.543579,299.957062 1065.028687,299.374451 
C1068.387207,298.813019 1069.427490,300.269043 1069.849487,302.618195 
C1067.342163,302.618195 1065.023438,302.790894 1062.747559,302.553436 
C1061.381958,302.410919 1059.828735,301.929535 1058.808594,301.068604 
C1056.829102,299.397980 1054.638062,297.616882 1053.521240,295.387268 
C1052.410645,293.170349 1052.312012,290.358643 1052.156006,287.784302 
C1052.060791,286.213501 1052.572998,284.561615 1053.039673,283.014679 
C1053.429810,281.721069 1054.149902,280.526917 1054.723877,279.288727 
C1055.893311,280.047852 1057.320679,280.594452 1058.166016,281.620605 
C1059.190796,282.864685 1059.723877,284.513794 1060.621338,286.325562 
z"/>
<path fill="#C0C0C0" opacity="1.000000" stroke="none" 
d="
M359.141144,134.165649 
C358.087402,137.374207 358.871216,139.253418 362.421570,140.381042 
C364.551727,141.057602 366.222565,143.180252 368.544281,145.001648 
C360.381409,149.622940 353.078644,147.542465 346.749786,146.797073 
C350.345337,142.811646 354.304169,138.423492 358.655823,134.045135 
C359.048615,134.054916 359.141144,134.165649 359.141144,134.165649 
z"/>
<path fill="#C0C0C0" opacity="1.000000" stroke="none" 
d="
M539.087036,115.002029 
C540.947083,115.340393 542.405029,115.679993 543.536865,115.943634 
C542.553772,119.376190 541.895447,122.186493 540.906433,124.875175 
C540.513062,125.944572 539.565063,127.154984 538.561523,127.589165 
C535.734070,128.812469 532.746826,129.666336 528.726929,131.040314 
C529.178467,127.037247 529.578796,123.488403 530.082703,119.021370 
C532.338562,117.967644 535.511719,116.485451 539.087036,115.002029 
z"/>
<path fill="#C0C0C0" opacity="1.000000" stroke="none" 
d="
M334.583344,38.012726 
C327.262543,37.605980 320.391479,37.208527 313.157104,36.790062 
C314.277893,32.386944 317.790802,29.826334 320.656586,31.682047 
C327.101746,35.855511 333.694427,33.569778 340.217285,34.016685 
C342.253479,34.156193 344.276154,34.493229 347.576843,34.894440 
C342.851410,37.760765 339.464294,40.099277 334.583344,38.012726 
z"/>
<path fill="#C0C0C0" opacity="1.000000" stroke="none" 
d="
M1078.996216,319.543915 
C1080.550537,323.808167 1082.039307,327.746246 1083.659912,332.032990 
C1081.415405,332.032990 1080.014526,332.032990 1078.613770,332.032990 
C1078.790283,333.228088 1078.966797,334.423218 1079.145874,335.635651 
C1075.683838,338.024841 1073.844482,336.204620 1073.071655,332.674622 
C1072.165283,328.534454 1070.005371,327.076813 1065.740845,329.217896 
C1065.608032,328.771088 1065.475098,328.324280 1065.342285,327.877441 
C1066.585449,326.967407 1068.071777,325.073090 1069.031372,325.310272 
C1074.434814,326.645752 1076.425537,323.399780 1078.059326,319.353668 
C1078.118408,319.207306 1078.242310,318.953766 1078.299438,318.963562 
C1078.517944,319.000946 1078.721558,319.125641 1078.996216,319.543915 
z"/>
<path fill="#C0C0C0" opacity="1.000000" stroke="none" 
d="
M330.299744,606.825073 
C332.372833,607.828796 334.159821,608.595459 335.946838,609.362122 
C335.912537,609.781311 335.878265,610.200439 335.843994,610.619629 
C330.416138,610.066345 324.930237,609.827515 319.582489,608.840271 
C316.443268,608.260742 314.351959,606.187073 316.004364,602.304810 
C317.690033,598.344360 320.016327,600.495911 322.027618,601.580444 
C324.787292,603.068481 327.360535,604.902344 330.299744,606.825073 
z"/>
<path fill="#C0C0C0" opacity="1.000000" stroke="none" 
d="
M273.588654,278.041595 
C265.859894,281.326935 258.365143,279.320496 250.855148,278.324341 
C253.590134,278.171082 256.325134,278.017853 259.491516,277.840424 
C259.177582,275.905426 258.960510,274.567261 258.475586,271.578064 
C264.296509,273.241699 269.236267,274.639648 274.144684,276.140228 
C274.261017,276.175812 274.025726,277.361481 273.588654,278.041595 
z"/>
<path fill="#C0C0C0" opacity="1.000000" stroke="none" 
d="
M1114.691406,559.619202 
C1112.245239,559.358032 1110.579468,558.980957 1111.903564,555.977478 
C1112.921387,553.668945 1113.062622,550.974060 1113.638550,548.237183 
C1115.683594,548.813171 1117.682251,549.668579 1119.744141,549.867493 
C1121.502197,550.037109 1123.333130,549.451782 1125.734741,549.116272 
C1123.889648,555.320984 1119.337769,557.267395 1114.691406,559.619202 
z"/>
<path fill="#C0C0C0" opacity="1.000000" stroke="none" 
d="
M890.063110,332.526184 
C889.773682,328.346588 889.528198,324.569733 889.282654,320.792877 
C889.895386,320.606720 890.508118,320.420563 891.120850,320.234406 
C892.864624,323.393677 894.837830,326.457550 896.214417,329.769440 
C896.635071,330.781525 895.711731,333.381836 894.882690,333.651367 
C893.513794,334.096405 891.721130,333.238037 890.063110,332.526184 
z"/>
<path fill="#C0C0C0" opacity="1.000000" stroke="none" 
d="
M276.141388,46.077805 
C275.114563,45.532578 274.418732,45.121086 274.280426,45.039310 
C279.403839,43.360981 284.730804,41.615971 290.401794,39.758263 
C287.842651,48.270531 281.108398,51.135334 276.141388,46.077805 
z"/>
<path fill="#C0C0C0" opacity="1.000000" stroke="none" 
d="
M291.588196,78.302017 
C296.888550,71.779480 298.659363,72.263206 304.781342,75.585289 
C305.869904,76.175980 306.086670,78.373100 306.408173,79.128540 
C301.791687,79.381500 298.117065,79.672646 294.439117,79.724274 
C293.460876,79.737999 292.472321,79.016930 291.588196,78.302017 
z"/>
<path fill="#C0C0C0" opacity="1.000000" stroke="none" 
d="
M329.189392,17.926340 
C336.686371,15.644835 336.686371,15.644835 340.669891,18.444065 
C335.947449,23.281206 330.648651,23.720007 323.954987,20.807821 
C325.915710,19.702969 327.373230,18.881653 329.189392,17.926340 
z"/>
<path fill="#C0C0C0" opacity="1.000000" stroke="none" 
d="
M1052.705566,252.483856 
C1052.189331,255.702026 1051.532227,258.568512 1050.853638,261.529388 
C1044.921875,258.181000 1045.064697,253.827469 1051.205811,249.109436 
C1051.679077,250.162003 1052.121826,251.147095 1052.705566,252.483856 
z"/>
<path fill="#C0C0C0" opacity="1.000000" stroke="none" 
d="
M297.663818,41.225048 
C301.116211,40.823708 304.203613,40.547768 307.291016,40.271828 
C307.406677,41.013020 307.522369,41.754211 307.638031,42.495403 
C303.036774,43.557159 298.435486,44.618916 293.834229,45.680672 
C293.628845,45.218605 293.423492,44.756538 293.218109,44.294476 
C294.578369,43.313133 295.938599,42.331791 297.663818,41.225048 
z"/>
<path fill="#C0C0C0" opacity="1.000000" stroke="none" 
d="
M1236.227661,461.730194 
C1236.928223,462.730652 1237.383423,463.484070 1238.105469,464.678802 
C1231.292480,461.979370 1225.869141,454.719299 1226.508789,449.681305 
C1229.677490,453.628662 1232.829956,457.555878 1236.227661,461.730194 
z"/>
<path fill="#C0C0C0" opacity="1.000000" stroke="none" 
d="
M1083.981323,402.345093 
C1079.385132,404.627075 1074.566772,406.657928 1069.654541,408.728271 
C1073.349976,401.612396 1077.030762,399.905121 1083.981323,402.345093 
z"/>
<path fill="#C0C0C0" opacity="1.000000" stroke="none" 
d="
M1177.888672,391.414124 
C1177.516724,390.829193 1177.274292,390.112610 1177.346191,390.079559 
C1181.510864,388.165131 1185.701538,386.307373 1189.478882,384.626923 
C1188.784424,389.706543 1183.237427,393.544128 1177.888672,391.414124 
z"/>
<path fill="#C0C0C0" opacity="1.000000" stroke="none" 
d="
M343.428467,594.595459 
C346.740082,593.787170 349.894165,593.216309 353.048279,592.645386 
C353.137329,593.137390 353.226349,593.629333 353.315399,594.121277 
C349.207642,598.201233 346.610840,598.553223 342.681732,595.545837 
C342.652710,595.523621 342.776672,595.246582 342.875824,595.127136 
C342.977783,595.004333 343.136902,594.928955 343.428467,594.595459 
z"/>
<path fill="#C0C0C0" opacity="1.000000" stroke="none" 
d="
M1010.320190,273.744263 
C1009.118286,276.107361 1007.926941,278.123169 1006.735657,280.138977 
C1006.202209,280.139740 1005.668762,280.140503 1005.135376,280.141296 
C1004.539856,278.574768 1003.944397,277.008240 1003.348877,275.441772 
C1005.676147,274.760162 1008.003479,274.078552 1010.320190,273.744263 
z"/>
<path fill="#C0C0C0" opacity="1.000000" stroke="none" 
d="
M1049.678467,320.620880 
C1047.975586,321.988159 1046.469727,323.049347 1044.963745,324.110504 
C1044.615967,323.732452 1044.268066,323.354431 1043.920288,322.976379 
C1046.590820,319.735870 1049.261353,316.495361 1051.931885,313.254852 
C1052.416504,313.567047 1052.901123,313.879242 1053.385864,314.191437 
C1052.215576,316.232544 1051.045410,318.273651 1049.678467,320.620880 
z"/>
<path fill="#C0C0C0" opacity="1.000000" stroke="none" 
d="
M1088.623779,357.267090 
C1089.236816,355.165985 1089.997437,353.382690 1090.758057,351.599365 
C1090.992188,351.813690 1091.226440,352.028015 1091.460571,352.242340 
C1091.266235,356.070435 1091.071899,359.898499 1090.869019,363.894409 
C1085.633911,362.594849 1088.593262,359.765320 1088.623779,357.267090 
z"/>
<path fill="#C0C0C0" opacity="1.000000" stroke="none" 
d="
M593.956482,184.724701 
C592.796631,181.812637 590.651367,179.035095 594.883362,177.232315 
C598.150085,180.446030 597.801086,183.882812 593.956482,184.724701 
z"/>
<path fill="#C0C0C0" opacity="1.000000" stroke="none" 
d="
M610.337463,192.085327 
C612.772217,191.379227 615.496216,190.822418 619.207825,190.063751 
C618.372009,192.864441 617.983521,194.166260 617.515503,195.734558 
C615.020325,194.466858 612.823547,193.350739 610.337463,192.085327 
z"/>
<path fill="#C0C0C0" opacity="1.000000" stroke="none" 
d="
M271.481689,60.663940 
C270.426971,60.123909 269.687256,59.717220 268.947571,59.310532 
C269.115509,58.772076 269.283447,58.233624 269.451385,57.695171 
C272.323273,57.154736 275.195190,56.614304 278.067078,56.073868 
C278.206665,56.640507 278.346222,57.207146 278.485779,57.773785 
C276.256104,58.781616 274.026428,59.789448 271.481689,60.663940 
z"/>
<path fill="#C0C0C0" opacity="1.000000" stroke="none" 
d="
M659.968323,202.507050 
C661.003174,202.943695 661.697449,203.190491 662.391724,203.437302 
C662.284241,203.997482 662.176819,204.557648 662.069397,205.117828 
C658.637634,204.542938 655.205933,203.968048 651.774231,203.393158 
C651.833801,202.908020 651.893433,202.422897 651.953003,201.937759 
C654.511230,202.064240 657.069519,202.190735 659.968323,202.507050 
z"/>
<path fill="#C0C0C0" opacity="1.000000" stroke="none" 
d="
M749.905151,56.114616 
C747.444031,56.171513 745.028076,56.171513 742.612061,56.171513 
C742.671570,55.500168 742.731079,54.828823 742.790588,54.157478 
C745.056702,54.564754 747.322815,54.972031 749.814941,55.661674 
C750.040894,55.944042 749.950378,56.057724 749.905151,56.114616 
z"/>
<path fill="#C0C0C0" opacity="1.000000" stroke="none" 
d="
M1099.798340,520.603149 
C1100.213135,520.163330 1100.507446,519.976440 1100.802002,519.789490 
C1100.738647,520.356018 1100.675415,520.922485 1100.612061,521.489014 
C1100.300659,521.278076 1099.989380,521.067078 1099.798340,520.603149 
z"/>
<path fill="#C0C0C0" opacity="1.000000" stroke="none" 
d="
M345.905334,25.108467 
C344.883026,25.074184 343.906494,24.985632 342.929932,24.897078 
C342.945984,24.672203 342.962036,24.447329 342.978088,24.222454 
C343.864655,24.286377 344.751190,24.350300 345.839355,24.679205 
C346.040955,24.944185 345.951141,25.054197 345.905334,25.108467 
z"/>
<path fill="#C0C0C0" opacity="1.000000" stroke="none" 
d="
M1182.095337,411.890198 
C1182.536499,412.080444 1182.931274,412.325928 1183.326050,412.571381 
C1182.958496,412.547729 1182.591064,412.524078 1182.090088,412.278259 
C1181.956543,412.056061 1182.048950,411.945435 1182.095337,411.890198 
z"/>
<path fill="#C0C0C0" opacity="1.000000" stroke="none" 
d="
M359.002441,133.999481 
C359.396515,133.752197 359.836761,133.560349 360.277039,133.368500 
C360.065186,133.625427 359.853363,133.882355 359.391357,134.152466 
C359.141144,134.165649 359.048615,134.054916 359.002441,133.999481 
z"/>
<path fill="#C0C0C0" opacity="1.000000" stroke="none" 
d="
M1086.060303,201.952072 
C1090.474243,199.300491 1094.884155,197.036942 1098.420898,193.815033 
C1101.472900,191.034653 1100.759644,187.360428 1098.523315,183.799088 
C1097.437012,182.069321 1097.548218,179.587662 1097.117432,177.446381 
C1099.451172,178.790359 1102.457886,179.634705 1103.930664,181.618011 
C1105.419556,183.623291 1105.391968,186.756012 1106.023804,189.395981 
C1106.437256,191.123154 1106.662598,192.919846 1107.282349,194.568771 
C1109.686890,200.965942 1107.667725,204.331299 1100.844971,204.977859 
C1099.531372,205.102371 1098.195923,204.995743 1096.596313,204.995743 
C1095.921021,206.856216 1095.242065,208.726822 1094.333374,211.230286 
C1091.296143,203.317612 1085.651245,206.420135 1080.501343,207.177231 
C1078.855225,207.419235 1077.143311,207.215073 1074.836182,207.215073 
C1077.510864,205.138840 1079.293457,203.407074 1081.395630,202.261871 
C1082.543457,201.636490 1084.232300,202.004211 1086.060303,201.952072 
z"/>
<path fill="#C0C0C0" opacity="1.000000" stroke="none" 
d="
M1091.644653,159.293640 
C1097.020508,162.022003 1102.396362,164.750366 1105.340942,166.244781 
C1104.354736,167.079269 1102.747192,168.439392 1101.139648,169.799530 
C1101.838867,170.495972 1102.537964,171.192413 1103.237183,171.888855 
C1094.619507,169.058945 1094.458008,169.108917 1094.736084,175.132431 
C1092.293579,172.142273 1088.339355,170.356049 1092.280273,165.900238 
C1092.937744,165.156967 1091.481689,162.544403 1091.154053,160.250793 
C1091.418701,159.568527 1091.531738,159.431076 1091.644653,159.293640 
z"/>
<path fill="#C0C0C0" opacity="1.000000" stroke="none" 
d="
M1084.741455,146.241714 
C1087.038940,148.723618 1089.081543,150.954437 1091.124146,153.185257 
C1090.698120,153.678207 1090.272217,154.171143 1089.846191,154.664078 
C1088.010620,153.360443 1085.545776,152.446243 1084.453857,150.682297 
C1080.744873,144.690247 1077.520752,138.397980 1074.502563,131.527756 
C1078.494019,134.497849 1082.485474,137.467926 1087.086060,140.891266 
C1084.797241,141.419632 1083.725098,141.667099 1082.653076,141.914566 
C1083.264282,143.273254 1083.875488,144.631943 1084.741455,146.241714 
z"/>
<path fill="#C0C0C0" opacity="1.000000" stroke="none" 
d="
M1077.039795,217.189026 
C1073.559937,212.857162 1073.559937,212.857162 1074.496948,210.239487 
C1081.252686,213.460831 1082.212402,215.581726 1079.039062,221.325302 
C1078.308594,219.895142 1077.711670,218.726089 1077.039795,217.189026 
z"/>
<path fill="#C0C0C0" opacity="1.000000" stroke="none" 
d="
M1065.629517,123.210022 
C1069.859863,123.801239 1071.193115,126.623924 1070.948242,130.720581 
C1069.068604,128.268753 1067.188965,125.816917 1065.629517,123.210022 
z"/>
<path fill="#C0C0C0" opacity="1.000000" stroke="none" 
d="
M1091.111816,159.889252 
C1090.670044,159.564713 1090.422363,159.056885 1090.174561,158.549072 
C1090.541382,158.653702 1090.908081,158.758347 1091.459717,159.078308 
C1091.531738,159.431076 1091.418701,159.568527 1091.111816,159.889252 
z"/>
<path fill="#C0C0C0" opacity="1.000000" stroke="none" 
d="
M103.671951,134.732819 
C109.235466,134.546371 110.329193,138.701294 112.096909,142.401688 
C107.419693,143.081253 102.463783,139.613892 102.176498,135.605682 
C102.162682,135.412903 102.949310,135.162735 103.671951,134.732819 
z"/>
</svg>