<svg
version="1.0"
xmlns="http://www.w3.org/2000/svg"
width="981.000000pt"
height="290.000000pt"
viewBox="0 0 981.000000 290.000000"
preserveAspectRatio="xMidYMid meet"
class="shark-svg"
>
<metadata>
  Created by potrace 1.16, written by Peter Selinger 2001-2019
</metadata>
<g
  transform="translate(0.000000,290.000000) scale(0.100000,-0.100000)"
  fill="#000000"
  stroke="none"
>
  <path
    d="M4391 2880 c-141 -51 -291 -183 -459 -404 -127 -167 -214 -270 -329
-388 l-85 -88 -152 -15 c-461 -48 -1426 -233 -2091 -402 -513 -130 -1186 -407
-1260 -519 -16 -24 -15 -27 1 -45 27 -29 168 -113 286 -168 115 -55 200 -77
333 -87 86 -6 94 -5 145 21 61 31 161 67 168 61 2 -3 -27 -27 -65 -55 -116
-84 -115 -124 6 -182 125 -59 487 -154 776 -203 162 -27 525 -66 810 -86 88
-6 206 -15 263 -20 l103 -8 207 -100 c236 -114 307 -143 420 -173 91 -25 129
-21 138 15 3 13 -1 63 -10 112 -11 65 -12 90 -4 95 20 13 136 19 513 29 557
15 615 23 1354 176 251 52 491 102 534 111 l77 16 108 -56 c184 -95 331 -137
476 -137 l73 0 5 84 c4 52 12 95 23 112 9 16 57 58 107 93 50 36 111 82 136
103 76 66 174 110 389 173 l122 36 81 -47 c53 -31 93 -47 117 -48 39 -1 43 4
58 76 3 15 16 35 28 43 25 16 261 59 389 70 l76 7 52 -48 c29 -27 144 -161
255 -299 112 -138 225 -271 252 -296 65 -60 151 -118 275 -183 112 -59 188
-79 280 -74 l56 3 -97 205 c-156 327 -284 660 -297 775 -11 92 69 350 174 560
43 87 273 431 325 488 15 15 34 27 44 27 10 0 35 5 55 11 42 11 61 39 71 102
3 20 26 82 51 137 25 54 46 104 46 110 0 31 -147 -14 -311 -96 -217 -108 -375
-214 -657 -441 -262 -211 -340 -296 -505 -550 l-66 -103 -108 0 c-182 0 -407
40 -466 82 -28 20 -29 23 -23 79 7 56 6 59 -14 59 -29 0 -160 -45 -219 -75
l-48 -24 -174 30 c-447 75 -1265 206 -1769 284 -305 47 -567 88 -582 91 -27 5
-152 140 -209 225 -61 91 -127 371 -136 579 -3 69 -10 133 -15 143 -11 22 -39
21 -107 -3z m-2071 -1617 c-70 -408 -87 -467 -151 -528 l-40 -40 42 87 c39 83
42 95 50 218 10 141 38 264 91 400 44 115 46 83 8 -137z m410 41 c-57 -258
-102 -439 -115 -460 -11 -18 -121 -84 -140 -84 -4 0 11 20 33 44 59 64 85 123
132 297 53 197 113 379 117 358 2 -8 -10 -78 -27 -155z m-210 -35 c-36 -259
-66 -396 -95 -435 -25 -33 -140 -134 -152 -134 -3 0 13 20 35 44 73 79 91 115
102 202 16 127 121 530 128 492 2 -9 -6 -85 -18 -169z m-449 -43 c-14 -209
-36 -390 -56 -461 -14 -47 -15 -37 -10 150 4 198 32 442 57 502 19 47 21 5 9
-191z"
  />
</g>
</svg>